<svg xmlns="http://www.w3.org/2000/svg" xmlns:xlink="http://www.w3.org/1999/xlink" xmlns:lucid="lucid" width="1621.35" height="1840"><g transform="translate(-158.64814814814815 140)" lucid:page-tab-id="0_0"><path d="M0-1258.83h1870.87v3840.5H0z" fill="#fff"/><path d="M440-114c0-3.3 2.7-6 6-6h1308c3.3 0 6 2.7 6 6v1788c0 3.3-2.7 6-6 6H446c-3.3 0-6-2.7-6-6z" stroke="#5e5e5e" stroke-width="3" fill="#fff"/><use xlink:href="#a" transform="matrix(1,0,0,1,448,-112) translate(596.5370370370371 17.77777777777778)"/><use xlink:href="#b" transform="matrix(1,0,0,1,448,-112) translate(660.7345679012346 17.77777777777778)"/><path d="M259.75 499.75c0 10.9-8.84 19.75-19.75 19.75-10.9 0-19.75-8.84-19.75-19.75 0-10.9 8.84-19.75 19.75-19.75 10.9 0 19.75 8.84 19.75 19.75z" stroke="#5e5e5e" stroke-width="3" fill="#fff"/><path d="M240 519.5v49.3c0 3.3 1.44 8.27 3.2 11.07L280 638m-40-63.2L200 638m0-98.75h80" stroke="#5e5e5e" stroke-width="3" fill="none"/><path d="M200 486c0-3.3 2.7-6 6-6h68c3.3 0 6 2.7 6 6v168c0 3.3-2.7 6-6 6h-68c-3.3 0-6-2.7-6-6z" fill="none"/><use xlink:href="#c" transform="matrix(1,0,0,1,120,638) translate(81.82098765432099 17.77777777777778)"/><use xlink:href="#d" transform="matrix(1,0,0,1,120,638) translate(60.64814814814814 44.44444444444444)"/><path d="M820 224.67c0 33.13-35.82 60-80 60s-80-26.87-80-60c0-33.14 35.82-60 80-60s80 26.86 80 60z" stroke="#5e5e5e" stroke-width="3" fill="#fff"/><use xlink:href="#e" transform="matrix(1,0,0,1,660,164.66666666666669) translate(11.104999999999999 63.15)"/><use xlink:href="#f" transform="matrix(1,0,0,1,660,164.66666666666669) translate(88.90500000000002 63.15)"/><use xlink:href="#g" transform="matrix(1,0,0,1,660,164.66666666666669) translate(103.90500000000002 63.15)"/><path d="M1120 160c0 33.14-35.82 60-80 60s-80-26.86-80-60 35.82-60 80-60 80 26.86 80 60z" stroke="#5e5e5e" stroke-width="3" fill="#fff"/><use xlink:href="#h" transform="matrix(1,0,0,1,960,100) translate(24.07999999999999 51.9)"/><use xlink:href="#i" transform="matrix(1,0,0,1,960,100) translate(116.93 51.9)"/><use xlink:href="#j" transform="matrix(1,0,0,1,960,100) translate(55.505 73.5)"/><path d="M820 400c0 33.14-35.82 60-80 60s-80-26.86-80-60 35.82-60 80-60 80 26.86 80 60z" stroke="#5e5e5e" stroke-width="3" fill="#fff"/><use xlink:href="#e" transform="matrix(1,0,0,1,660,340) translate(16.62999999999999 63.15)"/><use xlink:href="#k" transform="matrix(1,0,0,1,660,340) translate(94.43 63.15)"/><use xlink:href="#l" transform="matrix(1,0,0,1,660,340) translate(109.43 63.15)"/><path d="M840 1160c0 33.14-35.82 60-80 60s-80-26.86-80-60 35.82-60 80-60 80 26.86 80 60z" stroke="#5e5e5e" stroke-width="3" fill="#fff"/><use xlink:href="#m" transform="matrix(1,0,0,1,680,1100) translate(25.555 63.15)"/><use xlink:href="#n" transform="matrix(1,0,0,1,680,1100) translate(76.45500000000001 63.15)"/><path d="M740 1388.83c0 33.14-35.82 60-80 60s-80-26.86-80-60 35.82-60 80-60 80 26.86 80 60z" stroke="#5e5e5e" stroke-width="3" fill="#fff"/><use xlink:href="#m" transform="matrix(1,0,0,1,580,1328.831401311214) translate(25.554999999999993 51.9)"/><use xlink:href="#o" transform="matrix(1,0,0,1,580,1328.831401311214) translate(76.45500000000001 51.9)"/><use xlink:href="#p" transform="matrix(1,0,0,1,580,1328.831401311214) translate(38.055 73.5)"/><use xlink:href="#q" transform="matrix(1,0,0,1,580,1328.831401311214) translate(68.005 73.5)"/><path d="M1060 1388.83c0 33.14-35.82 60-80 60s-80-26.86-80-60 35.82-60 80-60 80 26.86 80 60z" stroke="#5e5e5e" stroke-width="3" fill="#fff"/><use xlink:href="#m" transform="matrix(1,0,0,1,900,1328.831401311214) translate(25.554999999999993 51.9)"/><use xlink:href="#o" transform="matrix(1,0,0,1,900,1328.831401311214) translate(76.45500000000001 51.9)"/><use xlink:href="#r" transform="matrix(1,0,0,1,900,1328.831401311214) translate(61.555 73.5)"/><path d="M820 940c0 33.14-35.82 60-80 60s-80-26.86-80-60 35.82-60 80-60 80 26.86 80 60z" stroke="#5e5e5e" stroke-width="3" fill="#fff"/><use xlink:href="#s" transform="matrix(1,0,0,1,660,880) translate(27.07999999999999 63.15)"/><use xlink:href="#t" transform="matrix(1,0,0,1,660,880) translate(77.97999999999999 63.15)"/><path d="M1110 800c0 33.14-35.82 60-80 60s-80-26.86-80-60 35.82-60 80-60 80 26.86 80 60z" stroke="#5e5e5e" stroke-width="3" fill="#fff"/><use xlink:href="#u" transform="matrix(1,0,0,1,950,740) translate(30.554999999999996 40.65)"/><use xlink:href="#v" transform="matrix(1,0,0,1,950,740) translate(39.05499999999999 62.25)"/><use xlink:href="#w" transform="matrix(1,0,0,1,950,740) translate(115.005 62.25)"/><use xlink:href="#x" transform="matrix(1,0,0,1,950,740) translate(37.05499999999999 83.85000000000001)"/><path d="M1110 940c0 33.14-35.82 60-80 60s-80-26.86-80-60 35.82-60 80-60 80 26.86 80 60z" stroke="#5e5e5e" stroke-width="3" fill="#fff"/><use xlink:href="#y" transform="matrix(1,0,0,1,950,880) translate(22.104999999999997 51.9)"/><use xlink:href="#z" transform="matrix(1,0,0,1,950,880) translate(69.95500000000001 51.9)"/><use xlink:href="#A" transform="matrix(1,0,0,1,950,880) translate(117.905 51.9)"/><use xlink:href="#B" transform="matrix(1,0,0,1,950,880) translate(25.554999999999993 73.5)"/><use xlink:href="#C" transform="matrix(1,0,0,1,950,880) translate(75.505 73.5)"/><use xlink:href="#D" transform="matrix(1,0,0,1,950,880) translate(100.505 73.5)"/><path d="M1110 1080c0 33.14-35.82 60-80 60s-80-26.86-80-60 35.82-60 80-60 80 26.86 80 60z" stroke="#5e5e5e" stroke-width="3" fill="#fff"/><use xlink:href="#y" transform="matrix(1,0,0,1,950,1020) translate(22.104999999999997 51.9)"/><use xlink:href="#z" transform="matrix(1,0,0,1,950,1020) translate(69.95500000000001 51.9)"/><use xlink:href="#A" transform="matrix(1,0,0,1,950,1020) translate(117.905 51.9)"/><use xlink:href="#B" transform="matrix(1,0,0,1,950,1020) translate(30.554999999999993 73.5)"/><use xlink:href="#C" transform="matrix(1,0,0,1,950,1020) translate(80.505 73.5)"/><use xlink:href="#E" transform="matrix(1,0,0,1,950,1020) translate(105.505 73.5)"/><path d="M832.78 220.45l-9.95 4.7-.85-1.8 9.94-4.7zm9.95-4.7l-.86-1.8 11.8-5.58h4.7zm79.57-37.56l-18.74 8.84h-1.4l-.6-1.27 19.9-9.4zm19.9-9.4l-9.95 4.7-.86-1.8 9.94-4.7z" stroke="#5e5e5e" stroke-width=".05" fill="#5e5e5e"/><path d="M822.85 225.13l-1.38.66.03-1.1v-.45l-.03-.68.53-.25z" fill="#5e5e5e"/><path d="M822.9 225.15l-1.46.68.04-1.14v-.45l-.03-.7.56-.26zm-1.4-1.56l.02.65v.44l-.03 1.05 1.32-.63-.83-1.76z" stroke="#5e5e5e" stroke-width=".05" fill="#5e5e5e"/><path d="M944.65 171.66l-3.96-8.38 14.87-1.9z" fill="#5e5e5e"/><path d="M944.33 173.33l-5.13-10.87 19.3-2.46zm-2.14-9.23l2.77 5.9 7.68-7.24z" stroke="#5e5e5e" stroke-width=".05" fill="#5e5e5e"/><use xlink:href="#F" transform="matrix(1,0,0,1,831.2637497487383,187.03741161398332) translate(0 14.222222222222223)"/><path d="M805.7 351.05l-8.42 4.6-.96-1.75 8.4-4.6zm25.2-13.82l-16.8 9.2-.97-1.74 16.82-9.22zm25.23-13.82l-16.82 9.22-.95-1.75 16.82-9.22zm25.22-13.8l-16.82 9.2-.96-1.75 16.8-9.22zm50.43-27.65l-4.6 2.52h-4.16l7.8-4.28zM957 268.12l-16.8 9.22-.97-1.76 16.8-9.2zm25.22-13.82l-16.8 9.22-.97-1.76 16.8-9.2zm25.22-13.82l-16.8 9.22-.97-1.76 16.8-9.2zm16.82-9.2l-8.4 4.6-.97-1.76 8.4-4.6z" stroke="#5e5e5e" stroke-width=".05" fill="#5e5e5e"/><path d="M797.3 355.65l-.48.26-.5-.36-1.33-.9 1.34-.75z" fill="#5e5e5e"/><path d="M797.34 355.66l-.52.28-.5-.38-1.38-.93 1.4-.77zm-2.3-1.03l1.3.9.48.35.45-.24-.94-1.7z" stroke="#5e5e5e" stroke-width=".05" fill="#5e5e5e"/><path d="M1026.88 233.98l-4.46-8.13 14.74-2.8z" fill="#5e5e5e"/><path d="M1026.66 235.66l-5.77-10.54 19.1-3.62zm-2.7-9.1l3.13 5.73 7.22-7.7z" stroke="#5e5e5e" stroke-width=".05" fill="#5e5e5e"/><use xlink:href="#G" transform="matrix(1,0,0,1,858.282580531574,284.466287979296) translate(0 14.222222222222223)"/><path d="M822.3 905.88l-8.04 6.67-1.28-1.54 8.04-6.66zm24.13-20l-16.1 13.34-1.26-1.54 16.08-13.33zm8.04-6.66l-1.28-1.54 1.77-1.47h3.13zm40.2-33.32l-10.82 8.98h-3.14l12.7-10.52zm24.14-20l-16.08 13.33-1.27-1.54 16.08-13.33zm16.1-13.32l-8.05 6.66-1.28-1.54 8.05-6.66z" stroke="#5e5e5e" stroke-width=".05" fill="#5e5e5e"/><path d="M814.28 912.53l-.86.72-1.14-1.66.72-.6z" fill="#5e5e5e"/><path d="M814.3 912.53l-.9.75-1.15-1.7.76-.62zm-2-.94l1.12 1.6.82-.67-1.24-1.5z" stroke="#5e5e5e" stroke-width=".05" fill="#5e5e5e"/><path d="M937.98 814.74l-5.9-7.14 13.93-5.54z" fill="#5e5e5e"/><path d="M938.1 816.43l-7.68-9.25L948.5 800zm-4.4-8.4l4.17 5 5.65-8.9z" stroke="#5e5e5e" stroke-width=".05" fill="#5e5e5e"/><use xlink:href="#G" transform="matrix(1,0,0,1,822.0509570279137,854.877555420703) translate(0 14.222222222222223)"/><path stroke="#5e5e5e" stroke-width=".05" fill="#5e5e5e"/><path fill="#5e5e5e"/><path stroke="#5e5e5e" stroke-width=".05" fill="#5e5e5e"/><path d="M833.84 942.96l-9.1-2.96 9.1-2.96z" fill="#5e5e5e"/><path d="M833.84 938.1l-5.87 1.9 5.87 1.9v2.1l-12.34-4 12.34-4z" stroke="#5e5e5e" stroke-width=".05" fill="#5e5e5e"/><use xlink:href="#H" transform="matrix(1,0,0,1,833.8439942870274,929.3333333333334) translate(0 14.222222222222223)"/><path d="M948.37 1078.6l-1.28 1.53-8.03-6.7 1.28-1.53zm-16.05-13.4l-1.28 1.54-16.05-13.38 1.27-1.53zm-24.07-20.07l-1.28 1.54-3.67-3.06h3.12zm-27.42-22.85h-3.12l-10.86-9.07 1.28-1.52zm-20.73-17.3l-1.28 1.54-16.05-13.38 1.28-1.54zm-24.08-20.07l-1.28 1.55-8.02-6.7 1.28-1.53z" stroke="#5e5e5e" stroke-width=".05" fill="#5e5e5e"/><path d="M948.54 1078.73l-.04 1.25v.43l.04.93-1.47-1.22 1.28-1.52z" fill="#5e5e5e"/><path d="M948.56 1078.72l-.04 1.26v.43l.05 1-1.53-1.3 1.3-1.56zm-1.45 1.4l1.4 1.16-.02-.87v-.42l.03-1.24-.14-.13z" stroke="#5e5e5e" stroke-width=".05" fill="#5e5e5e"/><path d="M829.56 974.8l-5.94 7.1-8-12.7z" fill="#5e5e5e"/><path d="M831.2 974.37l-7.7 9.23-10.35-16.46zm-7.47 5.84l4.18-5-9.78-3.92z" stroke="#5e5e5e" stroke-width=".05" fill="#5e5e5e"/><use xlink:href="#H" transform="matrix(1,0,0,1,834.3608930475042,1022.2755020443857) translate(0 14.222222222222223)"/><path d="M980 1326.33v-45.9c0-3.33-2.7-6-6-6H766c-3.3 0-6-2.7-6-6v-22.45" stroke="#5e5e5e" stroke-width="2" fill="none"/><path d="M981 1327.36l-.98-.03H979v-1.02h2z" stroke="#5e5e5e" stroke-width=".05" fill="#5e5e5e"/><path d="M760 1223.46l12.73 21.52h-25.46z" stroke="#5e5e5e" stroke-width="2" fill="#fff"/><path d="M660 1326.33v-45.9c0-3.33 2.7-6 6-6h88c3.3 0 6-2.7 6-6v-22.45" stroke="#5e5e5e" stroke-width="2" fill="none"/><path d="M661 1327.36l-.98-.03H659v-1.02h2z" stroke="#5e5e5e" stroke-width=".05" fill="#5e5e5e"/><path d="M760 1223.46l12.73 21.52h-25.46z" stroke="#5e5e5e" stroke-width="2" fill="#fff"/><path d="M280.77 537.1l376.96-311.8" stroke="#5e5e5e" stroke-width="2" fill="none"/><path d="M281.43 537.87l-1.43 1.18v-1.3h-1.57l1.72-1.42zM658.5 224.65v.43l.04.86-.2.15-1.27-1.55 1.47-1.2z" stroke="#5e5e5e" stroke-width=".05" fill="#5e5e5e"/><path d="M280.94 537.4l376.62-137.06" stroke="#5e5e5e" stroke-width="2" fill="none"/><path d="M281.3 538.34l-1.3.47v-1.05h-2.92l3.54-1.3zM658.5 399.98v.43l.03.65-.65.24-.7-1.9 1.35-.48z" stroke="#5e5e5e" stroke-width=".05" fill="#5e5e5e"/><path d="M280.7 538.48l377.1 400.8" stroke="#5e5e5e" stroke-width="2" fill="none"/><path d="M281.43 537.8l-1.43 1.36v-1.4h-1.37l-1.4-1.5 1.44-1.38zM658.54 938.6l-.04 1.38v.43l.04 1.1-1.47-1.56 1.46-1.37z" stroke="#5e5e5e" stroke-width=".05" fill="#5e5e5e"/><path d="M280.54 538.6l397.42 620.56" stroke="#5e5e5e" stroke-width="2" fill="none"/><path d="M281.4 538.07l-1.4.9v-1.22h-1.2l-1.26-2 1.68-1.07zM678.5 1159.98v.43l.06 1.55-1.46-2.27 1.44-.92z" stroke="#5e5e5e" stroke-width=".05" fill="#5e5e5e"/><path d="M820 537.75c0 33.14-35.82 60-80 60s-80-26.86-80-60 35.82-60 80-60 80 26.86 80 60z" stroke="#5e5e5e" stroke-width="3" fill="#fff"/><use xlink:href="#I" transform="matrix(1,0,0,1,660,477.75) translate(51.03 40.65)"/><use xlink:href="#J" transform="matrix(1,0,0,1,660,477.75) translate(45.58 62.25)"/><use xlink:href="#K" transform="matrix(1,0,0,1,660,477.75) translate(41.504999999999995 83.85000000000001)"/><path d="M281 537.75h376.5" stroke="#5e5e5e" stroke-width="2" fill="none"/><path d="M281.03 538.75H280v-1h-3v-1h4.03zM658.5 537.73v.43l.02.6h-1.05v-2h1.06z" stroke="#5e5e5e" stroke-width=".05" fill="#5e5e5e"/><path d="M1260 480c0 33.14-35.82 60-80 60s-80-26.86-80-60 35.82-60 80-60 80 26.86 80 60z" stroke="#5e5e5e" stroke-width="3" fill="#fff"/><use xlink:href="#L" transform="matrix(1,0,0,1,1100,420) translate(41.08 40.65)"/><use xlink:href="#i" transform="matrix(1,0,0,1,1100,420) translate(99.93 40.65)"/><use xlink:href="#M" transform="matrix(1,0,0,1,1100,420) translate(55.505 62.25)"/><use xlink:href="#N" transform="matrix(1,0,0,1,1100,420) translate(27.554999999999996 83.85000000000001)"/><path d="M832.24 536.53l-9.56 2-.4-1.96 9.55-2zm28.65-5.97l-19.1 3.98-.42-1.96 19.1-3.98zm28.65-5.98l-19.1 4-.4-1.97 19.1-3.97zm114.62-23.9l-19.1 4-.4-1.97 19.1-3.97zm28.66-5.97l-19.1 4-.4-1.96 19.1-4zm28.66-5.96l-19.12 3.98-.4-1.96 19.1-3.98zm19.1-3.98l-9.56 2-.4-1.97 9.54-2z" stroke="#5e5e5e" stroke-width=".05" fill="#5e5e5e"/><path d="M822.7 538.52l-1.23.26.03-1v-.44l-.03-.6.83-.18z" fill="#5e5e5e"/><path d="M822.74 538.54l-1.3.27.04-1.03v-.43l-.03-.63.87-.17zm-1.24-1.8l.02.6v.43l-.03.98 1.18-.25-.4-1.9z" stroke="#5e5e5e" stroke-width=".05" fill="#5e5e5e"/><path d="M1095.33 480.66l-13.02 7.45-1.88-9.07z" fill="#5e5e5e"/><path d="M1098.5 480l-16.9 9.66-2.44-11.77zm-15.5 6.56l9.16-5.24-10.48-1.14z" stroke="#5e5e5e" stroke-width=".05" fill="#5e5e5e"/><use xlink:href="#G" transform="matrix(1,0,0,1,889.6363637803206,503.00463004530553) translate(0 14.222222222222223)"/><path d="M1250 599.08c0 27.62-31.34 50-70 50s-70-22.38-70-50c0-27.6 31.34-50 70-50s70 22.4 70 50z" stroke="#5e5e5e" stroke-width="3" fill="#fff"/><use xlink:href="#O" transform="matrix(1,0,0,1,1110,549.0815809439667) translate(26.579999999999995 42.525)"/><use xlink:href="#P" transform="matrix(1,0,0,1,1110,549.0815809439667) translate(103.43 42.525)"/><use xlink:href="#Q" transform="matrix(1,0,0,1,1110,549.0815809439667) translate(50.504999999999995 64.125)"/><path d="M1107.64 597.96l-.26 2-10.14-1.33.26-1.98zm-20.28-2.62l-.26 1.98-20.28-2.62.25-1.98zm-30.43-3.93l-.25 2-6.33-.82v-2.02zm-122-15.75v2l-20.2-2.6.24-1.98zm-30.1-3.9l-.25 2-20.28-2.63.25-1.98zm-30.42-3.92l-.24 1.98-20.28-2.6.25-2zM844 563.9l-.26 1.98-10.14-1.3.25-2z" stroke="#5e5e5e" stroke-width=".05" fill="#5e5e5e"/><path d="M1108.53 598.08l-.03 1 .03 1-1.18-.14.26-1.98z" fill="#5e5e5e"/><path d="M1108.56 598.06l-.04 1.02.04 1.04-1.23-.16.26-2.03zm-1.18 1.86l1.13.15-.03-1 .04-.97-.87-.1z" stroke="#5e5e5e" stroke-width=".05" fill="#5e5e5e"/><path d="M832.14 568.04l-13.56-6.42 14.75-2.77z" fill="#5e5e5e"/><path d="M832.95 569.54l-17.58-8.34 19.12-3.6zm-11.16-7.5l9.52 4.5.84-6.45z" stroke="#5e5e5e" stroke-width=".05" fill="#5e5e5e"/><use xlink:href="#H" transform="matrix(1,0,0,1,934.9424335590991,573.4446244701735) translate(0 14.222222222222223)"/><path d="M1270 740c0 33.14-35.82 60-80 60s-80-26.86-80-60 35.82-60 80-60 80 26.86 80 60z" stroke="#5e5e5e" stroke-width="3" fill="#fff"/><use xlink:href="#R" transform="matrix(1,0,0,1,1110,680) translate(57.055 51.9)"/><use xlink:href="#S" transform="matrix(1,0,0,1,1110,680) translate(32.55499999999999 73.5)"/><path d="M1680 530c0 27.6-31.34 50-70 50s-70-22.4-70-50 31.34-50 70-50 70 22.4 70 50z" stroke="#5e5e5e" stroke-width="3" fill="#fff"/><use xlink:href="#T" transform="matrix(1,0,0,1,1540,480) translate(26.079999999999995 42.525)"/><use xlink:href="#U" transform="matrix(1,0,0,1,1540,480) translate(103.93 42.525)"/><use xlink:href="#V" transform="matrix(1,0,0,1,1540,480) translate(37.55499999999999 64.125)"/><path d="M1680 650c0 27.6-31.34 50-70 50s-70-22.4-70-50 31.34-50 70-50 70 22.4 70 50z" stroke="#5e5e5e" stroke-width="3" fill="#fff"/><use xlink:href="#W" transform="matrix(1,0,0,1,1540,600) translate(9.65500000000001 55.025)"/><use xlink:href="#X" transform="matrix(1,0,0,1,1540,600) translate(62.50500000000001 55.025)"/><path d="M1680 770c0 27.6-31.34 50-70 50s-70-22.4-70-50 31.34-50 70-50 70 22.4 70 50z" stroke="#5e5e5e" stroke-width="3" fill="#fff"/><use xlink:href="#Y" transform="matrix(1,0,0,1,1540,720) translate(22.579999999999995 42.525)"/><use xlink:href="#Z" transform="matrix(1,0,0,1,1540,720) translate(97.43 42.525)"/><use xlink:href="#X" transform="matrix(1,0,0,1,1540,720) translate(36.08 64.125)"/><path d="M1680 890c0 27.6-31.34 50-70 50s-70-22.4-70-50 31.34-50 70-50 70 22.4 70 50z" stroke="#5e5e5e" stroke-width="3" fill="#fff"/><use xlink:href="#aa" transform="matrix(1,0,0,1,1540,840) translate(28.079999999999995 42.525)"/><use xlink:href="#U" transform="matrix(1,0,0,1,1540,840) translate(101.93 42.525)"/><use xlink:href="#V" transform="matrix(1,0,0,1,1540,840) translate(37.55499999999999 64.125)"/><path d="M1107.77 738.8l-.48 1.93-826.57-201.77.48-1.94z" stroke="#5e5e5e" stroke-width=".05" fill="#5e5e5e"/><path d="M281.23 537.02l-.47 1.94-.76-.18v-1.03h-3.1l.42-1.68z" fill="#5e5e5e"/><path d="M281.26 537l-.48 2-.8-.2v-1.02h-3.1l.42-1.74zm-4.32.73h3.08v1.03l.72.17.46-1.9-3.86-.93z" stroke="#5e5e5e" stroke-width=".05" fill="#5e5e5e"/><path d="M1108.53 738.98l-.03 1v.43l.03.64-1.26-.3.47-1.95z" fill="#5e5e5e"/><path d="M1108.56 738.96l-.04 1.02v.43l.03.67-1.3-.32.47-2zm-1.26 1.75l1.2.3-.02-.6V740l.03-.98-.74-.18zM1259.63 692.83l-9.08 5.26-1-1.74 9.08-5.26zm27.24-15.8l-18.16 10.53-1-1.73 18.17-10.53zm27.25-15.8l-18.16 10.54-1-1.73 18.16-10.53zm27.24-15.8l-18.16 10.54-1-1.73 18.16-10.53zm9.08-5.25l-1-1.72h3.97zm45.4-26.33l-5.64 3.28h-3.98l8.63-5zm27.26-15.8l-18.17 10.54-1-1.74 18.16-10.53zm27.24-15.8l-18.16 10.54-1-1.74 18.16-10.53zm27.25-15.78L1459.4 577l-1-1.73 18.16-10.53zm27.23-15.8l-18.16 10.53-1-1.73 18.16-10.53zm18.16-10.53l-9.1 5.27-1-1.72 9.1-5.27z" stroke="#5e5e5e" stroke-width=".05" fill="#5e5e5e"/><path d="M1250.57 698.08l-.53.3-1.72-1.3 1.25-.73z" fill="#5e5e5e"/><path d="M1250.6 698.1l-.56.32-1.76-1.35 1.3-.75zm-2.23-1.03l1.67 1.3.5-.3-.98-1.7z" stroke="#5e5e5e" stroke-width=".05" fill="#5e5e5e"/><path d="M1525.68 542.8l-4.65-8.03 14.67-3.15z" fill="#5e5e5e"/><path d="M1525.5 544.48l-6.02-10.4 19.02-4.08zm-2.9-9.02l3.26 5.64 7.04-7.85z" stroke="#5e5e5e" stroke-width=".05" fill="#5e5e5e"/><use xlink:href="#G" transform="matrix(1,0,0,1,1322.4534687608802,617.1285134176371) translate(0 14.222222222222223)"/><path d="M1292.48 710l-9.43 2.26-.47-1.95 9.44-2.25zm28.3-6.8l-18.86 4.53-.47-1.94 18.87-4.53zm28.3-6.77l-18.86 4.52-.47-1.94 18.87-4.52zm28.3-6.78l-18.86 4.52-.47-1.95 18.87-4.52zm9.44-2.27l-.2-.8h3.5zm103.77-24.87l-11.47 2.76h-7.83l-.04-.17 18.87-4.53zm28.3-6.77l-18.88 4.52-.46-1.94 18.87-4.52zm18.86-4.52l-9.43 2.27-.47-1.95 9.43-2.26z" stroke="#5e5e5e" stroke-width=".05" fill="#5e5e5e"/><path d="M1538.5 650l.04 1.02-.8.2-.47-1.95 1.27-.3z" fill="#5e5e5e"/><path d="M1538.52 650l.04 1.04-.84.2-.48-2 1.32-.3zm-1.22-.7l.45 1.88.76-.18-.03-1 .04-1z" stroke="#5e5e5e" stroke-width=".05" fill="#5e5e5e"/><path d="M1282.92 716.03l-14.95-1.2 12.8-7.82z" fill="#5e5e5e"/><path d="M1284.22 717.13l-19.4-1.53 16.6-10.16zm-13.1-3.04l10.5.82-1.5-6.34z" stroke="#5e5e5e" stroke-width=".05" fill="#5e5e5e"/><use xlink:href="#H" transform="matrix(1,0,0,1,1372.6298267337943,665.2594447640803) translate(0 14.222222222222223)"/><path d="M1537.62 768.9l-.23 1.98-10.32-1.16.22-1.98zm-20.64-2.32l-.22 1.98-20.64-2.3.23-2zm-141.7-15.93v2.02l-2.97-.34.24-1.98zm-13.06-1.46l-.22 1.97-20.64-2.3.23-2zm-30.95-3.5l-.23 2-20.63-2.32.23-2zm-30.95-3.47l-.23 2-10.33-1.17.23-2z" stroke="#5e5e5e" stroke-width=".05" fill="#5e5e5e"/><path d="M1538.53 769l-.03 1 .03 1-1.16-.12.22-2z" fill="#5e5e5e"/><path d="M1538.56 768.98l-.04 1.02.04 1.04-1.22-.14.23-2.04zm-1.16 1.88l1.1.12-.03-.98.04-.98-.9-.1z" stroke="#5e5e5e" stroke-width=".05" fill="#5e5e5e"/><path d="M1288.37 746.56l-13.65-6.2 14.7-3z" fill="#5e5e5e"/><path d="M1289.2 748.04l-17.7-8.04 19.06-3.9zm-11.27-7.32l9.6 4.36.73-6.48z" stroke="#5e5e5e" stroke-width=".05" fill="#5e5e5e"/><use xlink:href="#H" transform="matrix(1,0,0,1,1375.268244475703,747.4763120196591) translate(0 14.222222222222223)"/><path d="M1538 888.68l-.82 1.82-9.5-4.32.82-1.82zm-19-8.63l-.83 1.82-19-8.63.83-1.82zm-28.5-12.95l-.83 1.83-19-8.63.82-1.82zm-28.5-12.94l-.84 1.82-10-4.54h4.84zm-57.02-25.88l-.83 1.82-19-8.63.83-1.82zm-28.5-12.95l-.83 1.82-19-8.63.82-1.82zm-28.5-12.94l-.84 1.8-19-8.62.83-1.82zm-28.5-12.95l-.84 1.82-19-8.63.82-1.82zm-28.52-12.95l-.82 1.82-9.5-4.3.82-1.83z" stroke="#5e5e5e" stroke-width=".05" fill="#5e5e5e"/><path d="M1538.54 888.92l-.04 1.08.04 1.12-1.4-.63.84-1.83z" fill="#5e5e5e"/><path d="M1538.56 888.9l-.04 1.1.04 1.16-1.44-.66.85-1.87zm-1.38 1.57l1.33.6-.03-1.07.04-1.06-.5-.24z" stroke="#5e5e5e" stroke-width=".05" fill="#5e5e5e"/><path d="M1282.05 768.47l-3.83 8.44-11.07-10.1z" fill="#5e5e5e"/><path d="M1283.53 767.63l-4.97 10.94-14.36-13.12zm-5.65 7.6l2.7-5.92-10.5-1.17z" stroke="#5e5e5e" stroke-width=".05" fill="#5e5e5e"/><use xlink:href="#H" transform="matrix(1,0,0,1,1372.383394154894,830.1070097418244) translate(0 14.222222222222223)"/><path d="M1500 110c0 27.6-35.82 50-80 50s-80-22.4-80-50 35.82-50 80-50 80 22.4 80 50z" stroke="#5e5e5e" stroke-width="3" fill="#fff"/><use xlink:href="#e" transform="matrix(1,0,0,1,1340,60) translate(24.129999999999992 42.525)"/><use xlink:href="#ab" transform="matrix(1,0,0,1,1340,60) translate(101.93 42.525)"/><use xlink:href="#ac" transform="matrix(1,0,0,1,1340,60) translate(35.53 64.125)"/><use xlink:href="#ad" transform="matrix(1,0,0,1,1340,60) translate(74.48 64.125)"/><path d="M1510 230c0 27.6-38.06 50-85 50s-85-22.4-85-50 38.06-50 85-50 85 22.4 85 50z" stroke="#5e5e5e" stroke-width="3" fill="#fff"/><use xlink:href="#e" transform="matrix(1,0,0,1,1340,180) translate(29.129999999999992 42.525)"/><use xlink:href="#ab" transform="matrix(1,0,0,1,1340,180) translate(106.93 42.525)"/><use xlink:href="#ae" transform="matrix(1,0,0,1,1340,180) translate(40.53 64.125)"/><use xlink:href="#ad" transform="matrix(1,0,0,1,1340,180) translate(79.48 64.125)"/><path d="M1500 350c0 27.6-40.3 50-90 50s-90-22.4-90-50 40.3-50 90-50 90 22.4 90 50z" stroke="#5e5e5e" stroke-width="3" fill="#fff"/><use xlink:href="#af" transform="matrix(1,0,0,1,1320,300) translate(53.605 25.41)"/><use xlink:href="#ag" transform="matrix(1,0,0,1,1320,300) translate(18.57999999999999 47.01)"/><use xlink:href="#ae" transform="matrix(1,0,0,1,1320,300) translate(57.529999999999994 47.01)"/><use xlink:href="#ah" transform="matrix(1,0,0,1,1320,300) translate(96.47999999999999 47.01)"/><use xlink:href="#ai" transform="matrix(1,0,0,1,1320,300) translate(25.655000000000012 68.61)"/><use xlink:href="#k" transform="matrix(1,0,0,1,1320,300) translate(85.45500000000001 68.61)"/><use xlink:href="#aj" transform="matrix(1,0,0,1,1320,300) translate(100.45500000000001 68.61)"/><use xlink:href="#E" transform="matrix(1,0,0,1,1320,300) translate(130.405 68.61)"/><path d="M849.16 391.96l-9.77 3.2-.64-1.9 9.78-3.2zm29.32-9.64l-19.54 6.42-.63-1.9 19.56-6.42zm29.33-9.65l-19.54 6.43-.63-1.9 19.55-6.43zm29.33-9.64l-19.55 6.43-.62-1.9 19.54-6.43zm29.32-9.64l-19.55 6.42-.62-1.9 19.55-6.43zm29.32-9.65l-19.55 6.43-.62-1.9 19.55-6.43zm29.32-9.64l-19.55 6.43-.63-1.9 19.55-6.42zm9.77-3.2l-.63-1.9 10.12-3.33h6.4zm77.9-26.57h-3.53l3.2-1.05zm29.6-8.8l-19.54 6.44-.62-1.9 19.56-6.43zm29.33-9.63l-19.54 6.43-.63-1.9 19.55-6.43zm29.33-9.64l-19.55 6.42-.63-1.9 19.55-6.42zm29.32-9.64l-19.55 6.42-.62-1.9 19.54-6.42zm29.32-9.65l-19.55 6.43-.62-1.9 19.55-6.43zm29.32-9.64l-19.56 6.43-.62-1.9 19.55-6.43zm29.3-9.64l-19.53 6.42-.63-1.9 19.55-6.43zm19.56-6.44l-9.77 3.22-.64-1.9 9.78-3.22z" stroke="#5e5e5e" stroke-width=".05" fill="#5e5e5e"/><path d="M1338.5 230l.02 1.05-.68.22-.63-1.9 1.33-.43z" fill="#5e5e5e"/><path d="M1338.52 230l.03 1.06-.73.24-.64-1.95 1.38-.45zm-1.28-.6l.6 1.84.66-.2-.03-1.05.03-1.03z" stroke="#5e5e5e" stroke-width=".05" fill="#5e5e5e"/><path d="M839.57 398.94l-15 .05 12.1-8.87z" fill="#5e5e5e"/><path d="M840.95 399.93l-19.45.07 15.7-11.5zm-13.3-1.95l10.54-.04-2.04-6.2z" stroke="#5e5e5e" stroke-width=".05" fill="#5e5e5e"/><g><use xlink:href="#H" transform="matrix(1,0,0,1,1022.2961424093965,304.3333333333333) translate(0 14.222222222222223)"/></g><path d="M839.7 362.5l-9.3 3.86-.77-1.85 9.3-3.84zm27.9-11.54l-18.6 7.7-.77-1.85 18.6-7.7zm27.9-11.55l-18.6 7.7-.77-1.84 18.6-7.7zm27.9-11.54l-18.6 7.7-.77-1.85 18.6-7.7zm27.9-11.55l-18.6 7.7-.76-1.84 18.6-7.7zm27.9-11.54l-18.6 7.7-.76-1.85 18.6-7.7zm27.9-11.56l-18.6 7.7-.76-1.84 18.6-7.7zm27.9-11.55l-18.6 7.7-.75-1.84 18.6-7.7zm27.9-11.55l-18.6 7.7-.75-1.84 15.07-6.24h4.13zm55.82-23.1l-3.34 1.38h-5.23l7.8-3.22zm27.9-11.55l-18.6 7.7-.76-1.84 18.6-7.7zm27.9-11.55l-18.6 7.7-.76-1.85 18.6-7.7zm27.9-11.55l-18.6 7.7-.76-1.85 18.6-7.7zm27.9-11.55l-18.6 7.7-.76-1.85 18.6-7.7zm27.9-11.55l-18.6 7.7-.75-1.85 18.6-7.7zm27.92-11.55l-18.6 7.7-.77-1.85 18.6-7.7zm27.9-11.55l-18.6 7.7-.77-1.85 18.6-7.7zm27.9-11.55l-18.6 7.7-.77-1.85 18.6-7.7zm18.6-7.7l-9.3 3.85-.76-1.85 9.3-3.85z" stroke="#5e5e5e" stroke-width=".05" fill="#5e5e5e"/><path d="M1362.08 146.26l-1.56.65-.77-1.84.34-.14z" fill="#5e5e5e"/><path d="M1362.13 146.27l-1.62.67-.78-1.9.37-.15zm-2.34-1.2l.73 1.8 1.5-.6-1.94-1.32z" stroke="#5e5e5e" stroke-width=".05" fill="#5e5e5e"/><path d="M830.86 370.1l-14.96 1.17 11.4-9.74z" fill="#5e5e5e"/><path d="M832.3 371l-19.4 1.5 14.8-12.62zm-13.4-.97l10.5-.82-2.48-6z" stroke="#5e5e5e" stroke-width=".05" fill="#5e5e5e"/><g><use xlink:href="#H" transform="matrix(1,0,0,1,1029.2960055781014,248.38491110539277) translate(0 14.222222222222223)"/></g><path d="M837.36 428.85l-9.6 1.56-.33-1.97 9.6-1.55zm28.82-4.66l-19.22 3.1-.32-1.98 19.22-3.1zm28.8-4.67l-19.2 3.1-.32-1.97 19.22-3.1zm28.83-4.67l-19.2 3.1-.32-1.96 19.2-3.1zm28.83-4.66l-19.2 3.1-.33-1.96 19.2-3.1zm28.82-4.66l-19.2 3.1-.33-1.97 19.2-3.1zm24.76-4l-15.14 2.45-.32-2 15.47-2.5zm119.35-19.3l-3.93.62v-2.02l3.6-.6zm28.82-4.67l-19.22 3.1-.32-1.97 19.22-3.1zm28.8-4.67l-19.2 3.1-.32-1.96 19.2-3.1zm28.83-4.66l-19.2 3.1-.33-1.96 19.2-3.1zm28.82-4.66l-19.2 3.1-.33-1.97 19.2-3.1zm28.82-4.66l-19.2 3.1-.33-1.97 19.22-3.1zm28.82-4.66l-19.2 3.1-.33-1.97 19.2-3.12zm19.2-3.1l-9.6 1.54-.3-1.97 9.6-1.56z" stroke="#5e5e5e" stroke-width=".05" fill="#5e5e5e"/><path d="M1318.5 349.98v.5l.03.53-.88.15-.32-1.97 1.2-.2z" fill="#5e5e5e"/><path d="M1318.52 350v.47l.03.56-.92.15-.33-2.02 1.25-.2zm-1.16-.8l.3 1.92.84-.13-.02-.53v-.5l.02-.96z" stroke="#5e5e5e" stroke-width=".05" fill="#5e5e5e"/><path d="M827.34 434.15l-14.82-2.3 13.34-6.85z" fill="#5e5e5e"/><path d="M828.55 435.35l-19.22-2.98 17.3-8.9zm-12.83-4l10.42 1.6-1.04-6.43z" stroke="#5e5e5e" stroke-width=".05" fill="#5e5e5e"/><g><use xlink:href="#H" transform="matrix(1,0,0,1,1006.2095086523668,380.5197704915174) translate(0 14.222222222222223)"/></g><path d="M1100 40c0 27.6-31.34 50-70 50s-70-22.4-70-50 31.34-50 70-50 70 22.4 70 50z" stroke="#5e5e5e" stroke-width="3" fill="#fff"/><g><use xlink:href="#ak" transform="matrix(1,0,0,1,960,-10) translate(15.079999999999993 55.025)"/><use xlink:href="#al" transform="matrix(1,0,0,1,960,-10) translate(94.93 55.025)"/></g><path d="M1015.43-60c0 27.6-30.3 50-67.7 50C910.32-10 880-32.4 880-60s30.32-50 67.72-50 67.7 22.4 67.7 50z" stroke="#5e5e5e" stroke-width="3" fill="#fff"/><g><use xlink:href="#am" transform="matrix(1,0,0,1,880,-110) translate(30.579999999999995 42.525)"/><use xlink:href="#an" transform="matrix(1,0,0,1,880,-110) translate(29.554999999999996 64.125)"/></g><path d="M760.13 143.63l-6.6 6.88-1.44-1.38 6.58-6.88zm19.8-20.63l-13.2 13.75-1.45-1.38 13.2-13.76zm19.8-20.64l-13.2 13.76-1.45-1.4 13.2-13.74zm6.58-6.88l-1.43-1.38 9.44-9.84h2.78zm33-34.38l-1.76 1.83h-2.77l3.1-3.22zm19.8-20.64l-13.2 13.76-1.44-1.4 13.2-13.74zm19.8-20.63l-13.2 13.75-1.45-1.38 13.2-13.76zM898.67-.8l-13.2 13.75-1.43-1.38 13.2-13.76zm13.2-13.76l-6.6 6.88-1.44-1.4 6.6-6.87z" stroke="#5e5e5e" stroke-width=".05" fill="#5e5e5e"/><path d="M912.83-15.55l-.97 1-1.44-1.38.45-.47z" fill="#5e5e5e"/><path d="M912.88-15.56l-1.02 1.05-1.48-1.43.48-.5zm-2.42-.37l1.4 1.35.93-.96-1.92-.83z" stroke="#5e5e5e" stroke-width=".05" fill="#5e5e5e"/><path d="M755.46 153.75l-13.22 7.08 6.53-13.5z" fill="#5e5e5e"/><path d="M757.15 153.98l-17.15 9.2 8.47-17.53zm-12.67 4.52l9.3-5-4.7-4.5z" stroke="#5e5e5e" stroke-width=".05" fill="#5e5e5e"/><g><use xlink:href="#H" transform="matrix(1,0,0,1,768.2220004845537,62.92912267092582) translate(0 14.222222222222223)"/></g><path d="M824.97 166.32l-7.86 7.35-1.35-1.46 7.85-7.34zm7.85-7.35l-1.37-1.46 12.2-11.4h2.92zm39.26-36.74l-2.7 2.54h-2.94l4.27-4zm23.56-22.04l-15.7 14.7-1.38-1.47 15.7-14.7zm23.55-22.05l-15.7 14.7-1.38-1.47 15.7-14.7zm23.55-22.04l-15.7 14.7-1.37-1.46 15.7-14.7zm15.7-14.7l-7.85 7.36-1.37-1.46 7.86-7.35z" stroke="#5e5e5e" stroke-width=".05" fill="#5e5e5e"/><path d="M958.5 40l.05 1.33-.12.1-1.36-1.46 1.48-1.4z" fill="#5e5e5e"/><path d="M958.52 40l.05 1.34-.14.13-1.4-1.5 1.55-1.45zm-1.42-.03l1.33 1.43.1-.08-.06-1.32.05-1.36z" stroke="#5e5e5e" stroke-width=".05" fill="#5e5e5e"/><path d="M818.87 177l-13.6 6.37 7.26-13.14z" fill="#5e5e5e"/><path d="M820.54 177.33l-17.62 8.25 9.4-17.03zm-12.9 3.83l9.56-4.48-4.46-4.76z" stroke="#5e5e5e" stroke-width=".05" fill="#5e5e5e"/><g><use xlink:href="#H" transform="matrix(1,0,0,1,798.8051478635239,124.76794417982755) translate(0 14.222222222222223)"/></g><path d="M620 1579c0 33.14-35.82 60-80 60s-80-26.86-80-60 35.82-60 80-60 80 26.86 80 60z" stroke="#5e5e5e" stroke-width="3" fill="#fff"/><g><use xlink:href="#m" transform="matrix(1,0,0,1,460,1518.9998203672471) translate(25.554999999999993 51.9)"/><use xlink:href="#o" transform="matrix(1,0,0,1,460,1518.9998203672471) translate(76.45500000000001 51.9)"/><use xlink:href="#ao" transform="matrix(1,0,0,1,460,1518.9998203672471) translate(36.05499999999999 73.5)"/></g><path d="M860 1579c0 33.14-35.82 60-80 60s-80-26.86-80-60 35.82-60 80-60 80 26.86 80 60z" stroke="#5e5e5e" stroke-width="3" fill="#fff"/><g><use xlink:href="#ap" transform="matrix(1,0,0,1,700,1518.9998203672471) translate(23.054999999999993 51.9)"/><use xlink:href="#o" transform="matrix(1,0,0,1,700,1518.9998203672471) translate(78.95500000000001 51.9)"/><use xlink:href="#ao" transform="matrix(1,0,0,1,700,1518.9998203672471) translate(36.05499999999999 73.5)"/></g><path d="M780 1516.1l-1.4 1.4-7-6.98 1.42-1.4zm-13.96-13.97l-1.4 1.4-7.97-7.94h2.83zm-27.87-27.88h-2.83l-5.6-5.6 1.4-1.42zm-14-14l-1.4 1.42-7-6.98 1.42-1.42z" stroke="#5e5e5e" stroke-width=".05" fill="#5e5e5e"/><path d="M781.46 1517.54l-1.44-.04h-.95l-.46.02 1.38-1.45z" fill="#5e5e5e"/><path d="M781.52 1517.57l-1.5-.05h-.95l-.52.03 1.43-1.52zm-2.85-.08l.4-.02h.95l1.38.04-1.42-1.42z" stroke="#5e5e5e" stroke-width=".05" fill="#5e5e5e"/><path d="M719.05 1450l-6.55 6.55-6.8-13.36z" fill="#5e5e5e"/><path d="M720.73 1449.73l-8.5 8.5-8.83-17.33zm-7.96 5.14l4.6-4.6-9.4-4.8z" stroke="#5e5e5e" stroke-width=".05" fill="#5e5e5e"/><g><use xlink:href="#H" transform="matrix(1,0,0,1,689.7163038916614,1474.2531484650347) translate(0 14.222222222222223)"/></g><path d="M583.3 1512.36l-4 11.6-1.9-.64 4.02-11.62zm4.02-11.62l-1.9-.65.84-2.43h2.1zm16.03-46.47l-4 11.62-1.9-.66 4-11.62z" stroke="#5e5e5e" stroke-width=".05" fill="#5e5e5e"/><path d="M579.3 1523.95l-.35 1.04-1.27-.56-.6-.2.33-.94z" fill="#5e5e5e"/><path d="M579.34 1523.93l-.38 1.1-1.3-.56-.6-.22.34-1zm-2.22.3l.56.2 1.25.52.34-1-1.84-.62z" stroke="#5e5e5e" stroke-width=".05" fill="#5e5e5e"/><path d="M607.12 1454.5l-8.77-3 9.04-11.98z" fill="#5e5e5e"/><path d="M608.1 1455.9l-11.37-3.9 11.72-15.54zm-8.12-4.9l6.16 2.12.2-10.54z" stroke="#5e5e5e" stroke-width=".05" fill="#5e5e5e"/><g><use xlink:href="#H" transform="matrix(1,0,0,1,533.294774452885,1476.340171730205) translate(0 14.222222222222223)"/></g><path d="M820 760c0 33.14-35.82 60-80 60s-80-26.86-80-60 35.82-60 80-60 80 26.86 80 60z" stroke="#5e5e5e" stroke-width="3" fill="#fff"/><g><use xlink:href="#aq" transform="matrix(1,0,0,1,660,700) translate(41.279999999999994 51.9)"/><use xlink:href="#ar" transform="matrix(1,0,0,1,660,700) translate(24.07999999999999 73.5)"/></g><path d="M280.86 538.26L657.64 759.5" stroke="#5e5e5e" stroke-width="2" fill="none"/><path d="M281.4 537.4l-1.02 1.73-.38-.22v-1.15h-1.97l-1.12-.66 1.02-1.73zM658.53 758.86l-.03 1.12v.43l.03.78-1.42-.84 1.02-1.72z" stroke="#5e5e5e" stroke-width=".05" fill="#5e5e5e"/><defs><path fill="#333" d="M30-248c87 1 191-15 191 75 0 78-77 80-158 76V0H30v-248zm33 125c57 0 124 11 124-50 0-59-68-47-124-48v98" id="as"/><path fill="#333" d="M100-194c62-1 85 37 85 99 1 63-27 99-86 99S16-35 15-95c0-66 28-99 85-99zM99-20c44 1 53-31 53-75 0-43-8-75-51-75s-53 32-53 75 10 74 51 75" id="at"/><path fill="#333" d="M117-194c89-4 53 116 60 194h-32v-121c0-31-8-49-39-48C34-167 62-67 57 0H25l-1-190h30c1 10-1 24 2 32 11-22 29-35 61-36" id="au"/><path fill="#333" d="M59-47c-2 24 18 29 38 22v24C64 9 27 4 27-40v-127H5v-23h24l9-43h21v43h35v23H59v120" id="av"/><g id="a"><use transform="matrix(0.06172839506172839,0,0,0.06172839506172839,0,0)" xlink:href="#as"/><use transform="matrix(0.06172839506172839,0,0,0.06172839506172839,14.814814814814813,0)" xlink:href="#at"/><use transform="matrix(0.06172839506172839,0,0,0.06172839506172839,27.160493827160494,0)" xlink:href="#au"/><use transform="matrix(0.06172839506172839,0,0,0.06172839506172839,39.50617283950617,0)" xlink:href="#av"/><use transform="matrix(0.06172839506172839,0,0,0.06172839506172839,45.67901234567901,0)" xlink:href="#at"/></g><path fill="#333" d="M63-220v92h138v28H63V0H30v-248h175v28H63" id="aw"/><path fill="#333" d="M141-36C126-15 110 5 73 4 37 3 15-17 15-53c-1-64 63-63 125-63 3-35-9-54-41-54-24 1-41 7-42 31l-33-3c5-37 33-52 76-52 45 0 72 20 72 64v82c-1 20 7 32 28 27v20c-31 9-61-2-59-35zM48-53c0 20 12 33 32 33 41-3 63-29 60-74-43 2-92-5-92 41zm25-158c8-23 27-35 38-54h36v5l-58 49H73" id="ax"/><path fill="#333" d="M96-169c-40 0-48 33-48 73s9 75 48 75c24 0 41-14 43-38l32 2c-6 37-31 61-74 61-59 0-76-41-82-99-10-93 101-131 147-64 4 7 5 14 7 22l-32 3c-4-21-16-35-41-35" id="ay"/><path fill="#333" d="M24-231v-30h32v30H24zM24 0v-190h32V0H24" id="az"/><path fill="#333" d="M24 0v-261h32V0H24" id="aA"/><g id="b"><use transform="matrix(0.06172839506172839,0,0,0.06172839506172839,0,0)" xlink:href="#aw"/><use transform="matrix(0.06172839506172839,0,0,0.06172839506172839,13.518518518518517,0)" xlink:href="#ax"/><use transform="matrix(0.06172839506172839,0,0,0.06172839506172839,25.864197530864196,0)" xlink:href="#ay"/><use transform="matrix(0.06172839506172839,0,0,0.06172839506172839,36.9753086419753,0)" xlink:href="#az"/><use transform="matrix(0.06172839506172839,0,0,0.06172839506172839,41.85185185185185,0)" xlink:href="#aA"/></g><path fill="#333" d="M232-93c-1 65-40 97-104 97C67 4 28-28 28-90v-158h33c8 89-33 224 67 224 102 0 64-133 71-224h33v155" id="aB"/><path fill="#333" d="M135-143c-3-34-86-38-87 0 15 53 115 12 119 90S17 21 10-45l28-5c4 36 97 45 98 0-10-56-113-15-118-90-4-57 82-63 122-42 12 7 21 19 24 35" id="aC"/><path fill="#333" d="M84 4C-5 8 30-112 23-190h32v120c0 31 7 50 39 49 72-2 45-101 50-169h31l1 190h-30c-1-10 1-25-2-33-11 22-28 36-60 37" id="aD"/><path fill="#333" d="M114-163C36-179 61-72 57 0H25l-1-190h30c1 12-1 29 2 39 6-27 23-49 58-41v29" id="aE"/><g id="c"><use transform="matrix(0.06172839506172839,0,0,0.06172839506172839,0,0)" xlink:href="#aB"/><use transform="matrix(0.06172839506172839,0,0,0.06172839506172839,15.987654320987653,0)" xlink:href="#aC"/><use transform="matrix(0.06172839506172839,0,0,0.06172839506172839,27.098765432098766,0)" xlink:href="#aD"/><use transform="matrix(0.06172839506172839,0,0,0.06172839506172839,39.44444444444444,0)" xlink:href="#ax"/><use transform="matrix(0.06172839506172839,0,0,0.06172839506172839,51.79012345679012,0)" xlink:href="#aE"/><use transform="matrix(0.06172839506172839,0,0,0.06172839506172839,59.1358024691358,0)" xlink:href="#az"/><use transform="matrix(0.06172839506172839,0,0,0.06172839506172839,64.01234567901234,0)" xlink:href="#at"/></g><path fill="#333" d="M127-220V0H93v-220H8v-28h204v28h-85" id="aF"/><path fill="#333" d="M141-36C126-15 110 5 73 4 37 3 15-17 15-53c-1-64 63-63 125-63 3-35-9-54-41-54-24 1-41 7-42 31l-33-3c5-37 33-52 76-52 45 0 72 20 72 64v82c-1 20 7 32 28 27v20c-31 9-61-2-59-35zM48-53c0 20 12 33 32 33 41-3 63-29 60-74-43 2-92-5-92 41" id="aG"/><path fill="#333" d="M115-194c53 0 69 39 70 98 0 66-23 100-70 100C84 3 66-7 56-30L54 0H23l1-261h32v101c10-23 28-34 59-34zm-8 174c40 0 45-34 45-75 0-40-5-75-45-74-42 0-51 32-51 76 0 43 10 73 51 73" id="aH"/><path fill="#333" d="M106-169C34-169 62-67 57 0H25v-261h32l-1 103c12-21 28-36 61-36 89 0 53 116 60 194h-32v-121c2-32-8-49-39-48" id="aI"/><path fill="#333" d="M85-194c31 0 48 13 60 33l-1-100h32l1 261h-30c-2-10 0-23-3-31C134-8 116 4 85 4 32 4 16-35 15-94c0-66 23-100 70-100zm9 24c-40 0-46 34-46 75 0 40 6 74 45 74 42 0 51-32 51-76 0-42-9-74-50-73" id="aJ"/><g id="d"><use transform="matrix(0.06172839506172839,0,0,0.06172839506172839,0,0)" xlink:href="#aF"/><use transform="matrix(0.06172839506172839,0,0,0.06172839506172839,12.716049382716047,0)" xlink:href="#aE"/><use transform="matrix(0.06172839506172839,0,0,0.06172839506172839,20.061728395061728,0)" xlink:href="#aG"/><use transform="matrix(0.06172839506172839,0,0,0.06172839506172839,32.407407407407405,0)" xlink:href="#aH"/><use transform="matrix(0.06172839506172839,0,0,0.06172839506172839,44.75308641975308,0)" xlink:href="#aG"/><use transform="matrix(0.06172839506172839,0,0,0.06172839506172839,57.09876543209876,0)" xlink:href="#aA"/><use transform="matrix(0.06172839506172839,0,0,0.06172839506172839,61.9753086419753,0)" xlink:href="#aI"/><use transform="matrix(0.06172839506172839,0,0,0.06172839506172839,74.32098765432099,0)" xlink:href="#aG"/><use transform="matrix(0.06172839506172839,0,0,0.06172839506172839,86.66666666666667,0)" xlink:href="#aJ"/><use transform="matrix(0.06172839506172839,0,0,0.06172839506172839,99.01234567901236,0)" xlink:href="#at"/><use transform="matrix(0.06172839506172839,0,0,0.06172839506172839,111.35802469135804,0)" xlink:href="#aE"/></g><path d="M233-177c-1 41-23 64-60 70L243 0h-38l-65-103H63V0H30v-248c88 3 205-21 203 71zM63-129c60-2 137 13 137-47 0-61-80-42-137-45v92" id="aK"/><path d="M100-194c63 0 86 42 84 106H49c0 40 14 67 53 68 26 1 43-12 49-29l28 8c-11 28-37 45-77 45C44 4 14-33 15-96c1-61 26-98 85-98zm52 81c6-60-76-77-97-28-3 7-6 17-6 28h103" id="aL"/><path d="M177-190C167-65 218 103 67 71c-23-6-38-20-44-43l32-5c15 47 100 32 89-28v-30C133-14 115 1 83 1 29 1 15-40 15-95c0-56 16-97 71-98 29-1 48 16 59 35 1-10 0-23 2-32h30zM94-22c36 0 50-32 50-73 0-42-14-75-50-75-39 0-46 34-46 75s6 73 46 73" id="aM"/><path d="M24-231v-30h32v30H24zM24 0v-190h32V0H24" id="aN"/><path d="M135-143c-3-34-86-38-87 0 15 53 115 12 119 90S17 21 10-45l28-5c4 36 97 45 98 0-10-56-113-15-118-90-4-57 82-63 122-42 12 7 21 19 24 35" id="aO"/><path d="M59-47c-2 24 18 29 38 22v24C64 9 27 4 27-40v-127H5v-23h24l9-43h21v43h35v23H59v120" id="aP"/><path d="M114-163C36-179 61-72 57 0H25l-1-190h30c1 12-1 29 2 39 6-27 23-49 58-41v29" id="aQ"/><path d="M141-36C126-15 110 5 73 4 37 3 15-17 15-53c-1-64 63-63 125-63 3-35-9-54-41-54-24 1-41 7-42 31l-33-3c5-37 33-52 76-52 45 0 72 20 72 64v82c-1 20 7 32 28 27v20c-31 9-61-2-59-35zM48-53c0 20 12 33 32 33 41-3 63-29 60-74-43 2-92-5-92 41" id="aR"/><g id="e"><use transform="matrix(0.05,0,0,0.05,0,0)" xlink:href="#aK"/><use transform="matrix(0.05,0,0,0.05,12.950000000000001,0)" xlink:href="#aL"/><use transform="matrix(0.05,0,0,0.05,22.950000000000003,0)" xlink:href="#aM"/><use transform="matrix(0.05,0,0,0.05,32.95,0)" xlink:href="#aN"/><use transform="matrix(0.05,0,0,0.05,36.900000000000006,0)" xlink:href="#aO"/><use transform="matrix(0.05,0,0,0.05,45.900000000000006,0)" xlink:href="#aP"/><use transform="matrix(0.05,0,0,0.05,50.900000000000006,0)" xlink:href="#aQ"/><use transform="matrix(0.05,0,0,0.05,56.85,0)" xlink:href="#aR"/><use transform="matrix(0.05,0,0,0.05,66.85000000000001,0)" xlink:href="#aQ"/></g><path d="M100-194c62-1 85 37 85 99 1 63-27 99-86 99S16-35 15-95c0-66 28-99 85-99zM99-20c44 1 53-31 53-75 0-43-8-75-51-75s-53 32-53 75 10 74 51 75" id="aS"/><use transform="matrix(0.05,0,0,0.05,0,0)" xlink:href="#aS" id="f"/><path d="M115-194c55 1 70 41 70 98S169 2 115 4C84 4 66-9 55-30l1 105H24l-1-265h31l2 30c10-21 28-34 59-34zm-8 174c40 0 45-34 45-75s-6-73-45-74c-42 0-51 32-51 76 0 43 10 73 51 73" id="aT"/><path d="M117-194c89-4 53 116 60 194h-32v-121c0-31-8-49-39-48C34-167 62-67 57 0H25l-1-190h30c1 10-1 24 2 32 11-22 29-35 61-36" id="aU"/><g id="g"><use transform="matrix(0.05,0,0,0.05,0,0)" xlink:href="#aT"/><use transform="matrix(0.05,0,0,0.05,10,0)" xlink:href="#aS"/><use transform="matrix(0.05,0,0,0.05,20,0)" xlink:href="#aU"/><use transform="matrix(0.05,0,0,0.05,30,0)" xlink:href="#aP"/><use transform="matrix(0.05,0,0,0.05,35,0)" xlink:href="#aS"/></g><path d="M205 0l-28-72H64L36 0H1l101-248h38L239 0h-34zm-38-99l-47-123c-12 45-31 82-46 123h93" id="aV"/><path d="M210-169c-67 3-38 105-44 169h-31v-121c0-29-5-50-35-48C34-165 62-65 56 0H25l-1-190h30c1 10-1 24 2 32 10-44 99-50 107 0 11-21 27-35 58-36 85-2 47 119 55 194h-31v-121c0-29-5-49-35-48" id="aW"/><path d="M9 0v-24l116-142H16v-24h144v24L44-24h123V0H9" id="aX"/><g id="h"><use transform="matrix(0.05,0,0,0.05,0,0)" xlink:href="#aV"/><use transform="matrix(0.05,0,0,0.05,12,0)" xlink:href="#aQ"/><use transform="matrix(0.05,0,0,0.05,17.95,0)" xlink:href="#aW"/><use transform="matrix(0.05,0,0,0.05,32.9,0)" xlink:href="#aR"/><use transform="matrix(0.05,0,0,0.05,42.9,0)" xlink:href="#aX"/><use transform="matrix(0.05,0,0,0.05,51.900000000000006,0)" xlink:href="#aL"/><use transform="matrix(0.05,0,0,0.05,61.900000000000006,0)" xlink:href="#aU"/><use transform="matrix(0.05,0,0,0.05,71.9,0)" xlink:href="#aR"/><use transform="matrix(0.05,0,0,0.05,81.9,0)" xlink:href="#aQ"/></g><g id="i"><use transform="matrix(0.05,0,0,0.05,0,0)" xlink:href="#aS"/><use transform="matrix(0.05,0,0,0.05,10,0)" xlink:href="#aO"/></g><path d="M85-194c31 0 48 13 60 33l-1-100h32l1 261h-30c-2-10 0-23-3-31C134-8 116 4 85 4 32 4 16-35 15-94c0-66 23-100 70-100zm9 24c-40 0-46 34-46 75 0 40 6 74 45 74 42 0 51-32 51-76 0-42-9-74-50-73" id="aY"/><g id="j"><use transform="matrix(0.05,0,0,0.05,0,0)" xlink:href="#aY"/><use transform="matrix(0.05,0,0,0.05,10,0)" xlink:href="#aR"/><use transform="matrix(0.05,0,0,0.05,20,0)" xlink:href="#aY"/><use transform="matrix(0.05,0,0,0.05,30,0)" xlink:href="#aS"/><use transform="matrix(0.05,0,0,0.05,40,0)" xlink:href="#aO"/></g><use transform="matrix(0.05,0,0,0.05,0,0)" xlink:href="#aR" id="k"/><path d="M101-234c-31-9-42 10-38 44h38v23H63V0H32v-167H5v-23h27c-7-52 17-82 69-68v24" id="aZ"/><path d="M24 0v-261h32V0H24" id="ba"/><g id="l"><use transform="matrix(0.05,0,0,0.05,0,0)" xlink:href="#aZ"/><use transform="matrix(0.05,0,0,0.05,5,0)" xlink:href="#aR"/><use transform="matrix(0.05,0,0,0.05,15,0)" xlink:href="#ba"/><use transform="matrix(0.05,0,0,0.05,18.95,0)" xlink:href="#aP"/><use transform="matrix(0.05,0,0,0.05,23.95,0)" xlink:href="#aR"/></g><path d="M63-220v92h138v28H63V0H30v-248h175v28H63" id="bb"/><g id="m"><use transform="matrix(0.05,0,0,0.05,0,0)" xlink:href="#bb"/><use transform="matrix(0.05,0,0,0.05,10.950000000000001,0)" xlink:href="#aR"/><use transform="matrix(0.05,0,0,0.05,20.950000000000003,0)" xlink:href="#aX"/><use transform="matrix(0.05,0,0,0.05,29.950000000000003,0)" xlink:href="#aL"/><use transform="matrix(0.05,0,0,0.05,39.95,0)" xlink:href="#aQ"/></g><path d="M115-194c53 0 69 39 70 98 0 66-23 100-70 100C84 3 66-7 56-30L54 0H23l1-261h32v101c10-23 28-34 59-34zm-8 174c40 0 45-34 45-75 0-40-5-75-45-74-42 0-51 32-51 76 0 43 10 73 51 73" id="bc"/><path d="M96-169c-40 0-48 33-48 73s9 75 48 75c24 0 41-14 43-38l32 2c-6 37-31 61-74 61-59 0-76-41-82-99-10-93 101-131 147-64 4 7 5 14 7 22l-32 3c-4-21-16-35-41-35" id="bd"/><path d="M143 0L79-87 56-68V0H24v-261h32v163l83-92h37l-77 82L181 0h-38" id="be"/><path d="M84 4C-5 8 30-112 23-190h32v120c0 31 7 50 39 49 72-2 45-101 50-169h31l1 190h-30c-1-10 1-25-2-33-11 22-28 36-60 37" id="bf"/><g id="n"><use transform="matrix(0.05,0,0,0.05,0,0)" xlink:href="#bc"/><use transform="matrix(0.05,0,0,0.05,10,0)" xlink:href="#aR"/><use transform="matrix(0.05,0,0,0.05,20,0)" xlink:href="#bd"/><use transform="matrix(0.05,0,0,0.05,29,0)" xlink:href="#be"/><use transform="matrix(0.05,0,0,0.05,38,0)" xlink:href="#bf"/><use transform="matrix(0.05,0,0,0.05,48,0)" xlink:href="#aT"/></g><g id="o"><use transform="matrix(0.05,0,0,0.05,0,0)" xlink:href="#bc"/><use transform="matrix(0.05,0,0,0.05,10,0)" xlink:href="#aR"/><use transform="matrix(0.05,0,0,0.05,20,0)" xlink:href="#bd"/><use transform="matrix(0.05,0,0,0.05,29,0)" xlink:href="#be"/><use transform="matrix(0.05,0,0,0.05,38,0)" xlink:href="#bf"/><use transform="matrix(0.05,0,0,0.05,48,0)" xlink:href="#aT"/></g><g id="p"><use transform="matrix(0.05,0,0,0.05,0,0)" xlink:href="#aL"/><use transform="matrix(0.05,0,0,0.05,10,0)" xlink:href="#aW"/></g><path d="M108 0H70L1-190h34L89-25l56-165h34" id="bg"/><g id="q"><use transform="matrix(0.05,0,0,0.05,0,0)" xlink:href="#aU"/><use transform="matrix(0.05,0,0,0.05,10,0)" xlink:href="#bf"/><use transform="matrix(0.05,0,0,0.05,20,0)" xlink:href="#bg"/><use transform="matrix(0.05,0,0,0.05,29,0)" xlink:href="#aL"/><use transform="matrix(0.05,0,0,0.05,39,0)" xlink:href="#aW"/></g><g id="r"><use transform="matrix(0.05,0,0,0.05,0,0)" xlink:href="#ba"/><use transform="matrix(0.05,0,0,0.05,3.95,0)" xlink:href="#aS"/><use transform="matrix(0.05,0,0,0.05,13.949999999999998,0)" xlink:href="#bd"/><use transform="matrix(0.05,0,0,0.05,22.95,0)" xlink:href="#aR"/><use transform="matrix(0.05,0,0,0.05,32.95,0)" xlink:href="#ba"/></g><path d="M143 4C61 4 22-44 18-125c-5-107 100-154 193-111 17 8 29 25 37 43l-32 9c-13-25-37-40-76-40-61 0-88 39-88 99 0 61 29 100 91 101 35 0 62-11 79-27v-45h-74v-28h105v86C228-13 192 4 143 4" id="bh"/><g id="s"><use transform="matrix(0.05,0,0,0.05,0,0)" xlink:href="#bh"/><use transform="matrix(0.05,0,0,0.05,14,0)" xlink:href="#aL"/><use transform="matrix(0.05,0,0,0.05,24,0)" xlink:href="#aQ"/><use transform="matrix(0.05,0,0,0.05,29.950000000000003,0)" xlink:href="#aR"/><use transform="matrix(0.05,0,0,0.05,39.95,0)" xlink:href="#aQ"/></g><path d="M141 0L90-78 38 0H4l68-98-65-92h35l48 74 47-74h35l-64 92 68 98h-35" id="bi"/><g id="t"><use transform="matrix(0.05,0,0,0.05,0,0)" xlink:href="#aL"/><use transform="matrix(0.05,0,0,0.05,10,0)" xlink:href="#bi"/><use transform="matrix(0.05,0,0,0.05,19,0)" xlink:href="#aP"/><use transform="matrix(0.05,0,0,0.05,24,0)" xlink:href="#aQ"/><use transform="matrix(0.05,0,0,0.05,29.950000000000003,0)" xlink:href="#aR"/><use transform="matrix(0.05,0,0,0.05,39.95,0)" xlink:href="#aP"/><use transform="matrix(0.05,0,0,0.05,44.95,0)" xlink:href="#aS"/></g><path d="M33 0v-248h34V0H33" id="bj"/><path d="M96-169c-40 0-48 33-48 73s9 75 48 75c24 0 41-14 43-38l32 2c-6 37-31 61-74 61-59 0-76-41-82-99-10-93 101-131 147-64 4 7 5 14 7 22l-32 3c-4-21-16-35-41-35zm3 187c19-1 33 8 33 26 0 31-30 33-64 32V58c18 2 39 4 41-13 1-15-18-13-34-13L87 0h19" id="bk"/><path d="M100-194c62-1 85 37 85 99 1 63-27 99-86 99S16-35 15-95c0-66 28-99 85-99zM99-20c44 1 53-31 53-75 0-43-8-75-51-75s-53 32-53 75 10 74 51 75zm66-238c-3 23-9 48-36 47-26-1-65-44-74 0H39c4-23 8-48 36-47s64 44 74 0h16" id="bl"/><g id="u"><use transform="matrix(0.05,0,0,0.05,0,0)" xlink:href="#bj"/><use transform="matrix(0.05,0,0,0.05,5,0)" xlink:href="#aU"/><use transform="matrix(0.05,0,0,0.05,15,0)" xlink:href="#aZ"/><use transform="matrix(0.05,0,0,0.05,20,0)" xlink:href="#aS"/><use transform="matrix(0.05,0,0,0.05,30,0)" xlink:href="#aQ"/><use transform="matrix(0.05,0,0,0.05,35.95,0)" xlink:href="#aW"/><use transform="matrix(0.05,0,0,0.05,50.900000000000006,0)" xlink:href="#aR"/><use transform="matrix(0.05,0,0,0.05,60.900000000000006,0)" xlink:href="#bk"/><use transform="matrix(0.05,0,0,0.05,69.9,0)" xlink:href="#bl"/><use transform="matrix(0.05,0,0,0.05,79.9,0)" xlink:href="#aL"/><use transform="matrix(0.05,0,0,0.05,89.9,0)" xlink:href="#aO"/></g><g id="v"><use transform="matrix(0.05,0,0,0.05,0,0)" xlink:href="#aT"/><use transform="matrix(0.05,0,0,0.05,10,0)" xlink:href="#aL"/><use transform="matrix(0.05,0,0,0.05,20,0)" xlink:href="#aO"/><use transform="matrix(0.05,0,0,0.05,29,0)" xlink:href="#aO"/><use transform="matrix(0.05,0,0,0.05,38,0)" xlink:href="#aS"/><use transform="matrix(0.05,0,0,0.05,48,0)" xlink:href="#aR"/><use transform="matrix(0.05,0,0,0.05,58,0)" xlink:href="#aN"/><use transform="matrix(0.05,0,0,0.05,61.95,0)" xlink:href="#aO"/></g><path d="M16-82v-28h88v28H16" id="bm"/><use transform="matrix(0.05,0,0,0.05,0,0)" xlink:href="#bm" id="w"/><path d="M212-179c-10-28-35-45-73-45-59 0-87 40-87 99 0 60 29 101 89 101 43 0 62-24 78-52l27 14C228-24 195 4 139 4 59 4 22-46 18-125c-6-104 99-153 187-111 19 9 31 26 39 46" id="bn"/><path d="M106-169C34-169 62-67 57 0H25v-261h32l-1 103c12-21 28-36 61-36 89 0 53 116 60 194h-32v-121c2-32-8-49-39-48" id="bo"/><g id="x"><use transform="matrix(0.05,0,0,0.05,0,0)" xlink:href="#bn"/><use transform="matrix(0.05,0,0,0.05,12.950000000000001,0)" xlink:href="#aR"/><use transform="matrix(0.05,0,0,0.05,22.950000000000003,0)" xlink:href="#bc"/><use transform="matrix(0.05,0,0,0.05,32.95,0)" xlink:href="#aL"/><use transform="matrix(0.05,0,0,0.05,42.95,0)" xlink:href="#bk"/><use transform="matrix(0.05,0,0,0.05,51.95,0)" xlink:href="#aR"/><use transform="matrix(0.05,0,0,0.05,61.95,0)" xlink:href="#ba"/><use transform="matrix(0.05,0,0,0.05,65.9,0)" xlink:href="#bo"/><use transform="matrix(0.05,0,0,0.05,75.9,0)" xlink:href="#aS"/></g><g id="y"><use transform="matrix(0.05,0,0,0.05,0,0)" xlink:href="#aL"/><use transform="matrix(0.05,0,0,0.05,10,0)" xlink:href="#bi"/><use transform="matrix(0.05,0,0,0.05,19,0)" xlink:href="#aN"/><use transform="matrix(0.05,0,0,0.05,22.95,0)" xlink:href="#bc"/><use transform="matrix(0.05,0,0,0.05,32.95,0)" xlink:href="#aN"/><use transform="matrix(0.05,0,0,0.05,36.900000000000006,0)" xlink:href="#aQ"/></g><g id="z"><use transform="matrix(0.05,0,0,0.05,0,0)" xlink:href="#aO"/><use transform="matrix(0.05,0,0,0.05,9,0)" xlink:href="#aR"/><use transform="matrix(0.05,0,0,0.05,19,0)" xlink:href="#ba"/><use transform="matrix(0.05,0,0,0.05,22.95,0)" xlink:href="#aY"/><use transform="matrix(0.05,0,0,0.05,32.95,0)" xlink:href="#aS"/></g><g id="A"><use transform="matrix(0.05,0,0,0.05,0,0)" xlink:href="#aY"/><use transform="matrix(0.05,0,0,0.05,10,0)" xlink:href="#aL"/></g><g id="B"><use transform="matrix(0.05,0,0,0.05,0,0)" xlink:href="#bo"/><use transform="matrix(0.05,0,0,0.05,10,0)" xlink:href="#aS"/><use transform="matrix(0.05,0,0,0.05,20,0)" xlink:href="#aQ"/><use transform="matrix(0.05,0,0,0.05,25.950000000000003,0)" xlink:href="#aR"/><use transform="matrix(0.05,0,0,0.05,35.95,0)" xlink:href="#aO"/></g><g id="C"><use transform="matrix(0.05,0,0,0.05,0,0)" xlink:href="#aY"/><use transform="matrix(0.05,0,0,0.05,10,0)" xlink:href="#aS"/></g><path d="M100-194c63 0 86 42 84 106H49c0 40 14 67 53 68 26 1 43-12 49-29l28 8c-11 28-37 45-77 45C44 4 14-33 15-96c1-61 26-98 85-98zm52 81c6-60-76-77-97-28-3 7-6 17-6 28h103zm-32-149c12 18 30 30 39 51-31 2-38-20-57-30-20 10-27 32-59 30 9-22 29-33 41-51h36" id="bp"/><g id="D"><use transform="matrix(0.05,0,0,0.05,0,0)" xlink:href="#aW"/><use transform="matrix(0.05,0,0,0.05,14.950000000000001,0)" xlink:href="#bp"/><use transform="matrix(0.05,0,0,0.05,24.950000000000003,0)" xlink:href="#aO"/></g><g id="E"><use transform="matrix(0.05,0,0,0.05,0,0)" xlink:href="#aY"/><use transform="matrix(0.05,0,0,0.05,10,0)" xlink:href="#aN"/><use transform="matrix(0.05,0,0,0.05,13.949999999999998,0)" xlink:href="#aR"/></g><path fill="#333" d="M15-91v-56l181-69v40L49-119l147 57v40" id="bq"/><path fill="#333" d="M25-224v-37h50v37H25zM25 0v-190h50V0H25" id="br"/><path fill="#333" d="M135-194c87-1 58 113 63 194h-50c-7-57 23-157-34-157-59 0-34 97-39 157H25l-1-190h47c2 12-1 28 3 38 12-26 28-41 61-42" id="bs"/><path fill="#333" d="M190-63c-7 42-38 67-86 67-59 0-84-38-90-98-12-110 154-137 174-36l-49 2c-2-19-15-32-35-32-30 0-35 28-38 64-6 74 65 87 74 30" id="bt"/><path fill="#333" d="M25 0v-261h50V0H25" id="bu"/><path fill="#333" d="M85 4C-2 5 27-109 22-190h50c7 57-23 150 33 157 60-5 35-97 40-157h50l1 190h-47c-2-12 1-28-3-38-12 25-28 42-61 42" id="bv"/><path fill="#333" d="M135-150c-39-12-60 13-60 57V0H25l-1-190h47c2 13-1 29 3 40 6-28 27-53 61-41v41" id="bw"/><path fill="#333" d="M15-22v-40l146-57-146-57v-40l181 69v56" id="bx"/><g id="F"><use transform="matrix(0.04938271604938272,0,0,0.04938271604938272,0,0)" xlink:href="#bq"/><use transform="matrix(0.04938271604938272,0,0,0.04938271604938272,10.370370370370372,0)" xlink:href="#bq"/><use transform="matrix(0.04938271604938272,0,0,0.04938271604938272,20.740740740740744,0)" xlink:href="#br"/><use transform="matrix(0.04938271604938272,0,0,0.04938271604938272,25.679012345679016,0)" xlink:href="#bs"/><use transform="matrix(0.04938271604938272,0,0,0.04938271604938272,36.49382716049383,0)" xlink:href="#bt"/><use transform="matrix(0.04938271604938272,0,0,0.04938271604938272,46.370370370370374,0)" xlink:href="#bu"/><use transform="matrix(0.04938271604938272,0,0,0.04938271604938272,51.308641975308646,0)" xlink:href="#bv"/><use transform="matrix(0.04938271604938272,0,0,0.04938271604938272,62.12345679012346,0)" xlink:href="#br"/><use transform="matrix(0.04938271604938272,0,0,0.04938271604938272,67.06172839506173,0)" xlink:href="#bw"/><use transform="matrix(0.04938271604938272,0,0,0.04938271604938272,73.97530864197532,0)" xlink:href="#bx"/><use transform="matrix(0.04938271604938272,0,0,0.04938271604938272,84.34567901234568,0)" xlink:href="#bx"/></g><g id="G"><use transform="matrix(0.04938271604938272,0,0,0.04938271604938272,0,0)" xlink:href="#bq"/><use transform="matrix(0.04938271604938272,0,0,0.04938271604938272,10.370370370370372,0)" xlink:href="#bq"/><use transform="matrix(0.04938271604938272,0,0,0.04938271604938272,20.740740740740744,0)" xlink:href="#br"/><use transform="matrix(0.04938271604938272,0,0,0.04938271604938272,25.679012345679016,0)" xlink:href="#bs"/><use transform="matrix(0.04938271604938272,0,0,0.04938271604938272,36.49382716049383,0)" xlink:href="#bt"/><use transform="matrix(0.04938271604938272,0,0,0.04938271604938272,46.370370370370374,0)" xlink:href="#bu"/><use transform="matrix(0.04938271604938272,0,0,0.04938271604938272,51.308641975308646,0)" xlink:href="#bv"/><use transform="matrix(0.04938271604938272,0,0,0.04938271604938272,62.12345679012346,0)" xlink:href="#br"/><use transform="matrix(0.04938271604938272,0,0,0.04938271604938272,67.06172839506173,0)" xlink:href="#bw"/><use transform="matrix(0.04938271604938272,0,0,0.04938271604938272,73.97530864197532,0)" xlink:href="#bx"/><use transform="matrix(0.04938271604938272,0,0,0.04938271604938272,84.34567901234568,0)" xlink:href="#bx"/></g><path fill="#333" d="M185-48c-13 30-37 53-82 52C43 2 14-33 14-96s30-98 90-98c62 0 83 45 84 108H66c0 31 8 55 39 56 18 0 30-7 34-22zm-45-69c5-46-57-63-70-21-2 6-4 13-4 21h74" id="by"/><path fill="#333" d="M137-138c1-29-70-34-71-4 15 46 118 7 119 86 1 83-164 76-172 9l43-7c4 19 20 25 44 25 33 8 57-30 24-41C81-84 22-81 20-136c-2-80 154-74 161-7" id="bz"/><path fill="#333" d="M115-3C79 11 28 4 28-45v-112H4v-33h27l15-45h31v45h36v33H77v99c-1 23 16 31 38 25v30" id="bA"/><path fill="#333" d="M88-194c31-1 46 15 58 34l-1-101h50l1 261h-48c-2-10 0-23-3-31C134-8 116 4 84 4 32 4 16-41 15-95c0-56 19-97 73-99zm17 164c33 0 40-30 41-66 1-37-9-64-41-64s-38 30-39 65c0 43 13 65 39 65" id="bB"/><g id="H"><use transform="matrix(0.04938271604938272,0,0,0.04938271604938272,0,0)" xlink:href="#bq"/><use transform="matrix(0.04938271604938272,0,0,0.04938271604938272,10.370370370370372,0)" xlink:href="#bq"/><use transform="matrix(0.04938271604938272,0,0,0.04938271604938272,20.740740740740744,0)" xlink:href="#by"/><use transform="matrix(0.04938271604938272,0,0,0.04938271604938272,30.617283950617285,0)" xlink:href="#bz"/><use transform="matrix(0.04938271604938272,0,0,0.04938271604938272,40.49382716049384,0)" xlink:href="#bA"/><use transform="matrix(0.04938271604938272,0,0,0.04938271604938272,46.37037037037038,0)" xlink:href="#by"/><use transform="matrix(0.04938271604938272,0,0,0.04938271604938272,56.24691358024693,0)" xlink:href="#bs"/><use transform="matrix(0.04938271604938272,0,0,0.04938271604938272,67.06172839506173,0)" xlink:href="#bB"/><use transform="matrix(0.04938271604938272,0,0,0.04938271604938272,77.87654320987654,0)" xlink:href="#by"/><use transform="matrix(0.04938271604938272,0,0,0.04938271604938272,87.75308641975309,0)" xlink:href="#bw"/><use transform="matrix(0.04938271604938272,0,0,0.04938271604938272,94.66666666666667,0)" xlink:href="#bx"/><use transform="matrix(0.04938271604938272,0,0,0.04938271604938272,105.03703703703705,0)" xlink:href="#bx"/></g><g id="I"><use transform="matrix(0.05,0,0,0.05,0,0)" xlink:href="#aV"/><use transform="matrix(0.05,0,0,0.05,12,0)" xlink:href="#aT"/><use transform="matrix(0.05,0,0,0.05,22,0)" xlink:href="#aR"/><use transform="matrix(0.05,0,0,0.05,32,0)" xlink:href="#aM"/><use transform="matrix(0.05,0,0,0.05,42,0)" xlink:href="#aR"/><use transform="matrix(0.05,0,0,0.05,52,0)" xlink:href="#aQ"/></g><g id="J"><use transform="matrix(0.05,0,0,0.05,0,0)" xlink:href="#aQ"/><use transform="matrix(0.05,0,0,0.05,5.95,0)" xlink:href="#aL"/><use transform="matrix(0.05,0,0,0.05,15.949999999999998,0)" xlink:href="#aM"/><use transform="matrix(0.05,0,0,0.05,25.950000000000003,0)" xlink:href="#aN"/><use transform="matrix(0.05,0,0,0.05,29.899999999999995,0)" xlink:href="#aO"/><use transform="matrix(0.05,0,0,0.05,38.9,0)" xlink:href="#aP"/><use transform="matrix(0.05,0,0,0.05,43.9,0)" xlink:href="#aQ"/><use transform="matrix(0.05,0,0,0.05,49.85,0)" xlink:href="#aS"/><use transform="matrix(0.05,0,0,0.05,59.85,0)" xlink:href="#aO"/></g><g id="K"><use transform="matrix(0.05,0,0,0.05,0,0)" xlink:href="#aT"/><use transform="matrix(0.05,0,0,0.05,10,0)" xlink:href="#aR"/><use transform="matrix(0.05,0,0,0.05,20,0)" xlink:href="#aO"/><use transform="matrix(0.05,0,0,0.05,29,0)" xlink:href="#aO"/><use transform="matrix(0.05,0,0,0.05,38,0)" xlink:href="#aR"/><use transform="matrix(0.05,0,0,0.05,48,0)" xlink:href="#aY"/><use transform="matrix(0.05,0,0,0.05,58,0)" xlink:href="#aS"/><use transform="matrix(0.05,0,0,0.05,68,0)" xlink:href="#aO"/></g><path d="M30 0v-248h187v28H63v79h144v27H63v87h162V0H30" id="bC"/><g id="L"><use transform="matrix(0.05,0,0,0.05,0,0)" xlink:href="#bC"/><use transform="matrix(0.05,0,0,0.05,12,0)" xlink:href="#bi"/><use transform="matrix(0.05,0,0,0.05,21,0)" xlink:href="#bd"/><use transform="matrix(0.05,0,0,0.05,30,0)" xlink:href="#ba"/><use transform="matrix(0.05,0,0,0.05,33.95,0)" xlink:href="#bf"/><use transform="matrix(0.05,0,0,0.05,43.95,0)" xlink:href="#aN"/><use transform="matrix(0.05,0,0,0.05,47.900000000000006,0)" xlink:href="#aQ"/></g><g id="M"><use transform="matrix(0.05,0,0,0.05,0,0)" xlink:href="#aY"/><use transform="matrix(0.05,0,0,0.05,10,0)" xlink:href="#aR"/><use transform="matrix(0.05,0,0,0.05,20,0)" xlink:href="#aY"/><use transform="matrix(0.05,0,0,0.05,30,0)" xlink:href="#aS"/><use transform="matrix(0.05,0,0,0.05,40,0)" xlink:href="#aO"/></g><g id="N"><use transform="matrix(0.05,0,0,0.05,0,0)" xlink:href="#aO"/><use transform="matrix(0.05,0,0,0.05,9,0)" xlink:href="#aL"/><use transform="matrix(0.05,0,0,0.05,19,0)" xlink:href="#ba"/><use transform="matrix(0.05,0,0,0.05,22.95,0)" xlink:href="#aL"/><use transform="matrix(0.05,0,0,0.05,32.95,0)" xlink:href="#bd"/><use transform="matrix(0.05,0,0,0.05,41.95,0)" xlink:href="#aN"/><use transform="matrix(0.05,0,0,0.05,45.900000000000006,0)" xlink:href="#aS"/><use transform="matrix(0.05,0,0,0.05,55.900000000000006,0)" xlink:href="#aU"/><use transform="matrix(0.05,0,0,0.05,65.9,0)" xlink:href="#aR"/><use transform="matrix(0.05,0,0,0.05,75.9,0)" xlink:href="#aY"/><use transform="matrix(0.05,0,0,0.05,85.9,0)" xlink:href="#aS"/><use transform="matrix(0.05,0,0,0.05,95.9,0)" xlink:href="#aO"/></g><g id="O"><use transform="matrix(0.05,0,0,0.05,0,0)" xlink:href="#bn"/><use transform="matrix(0.05,0,0,0.05,12.950000000000001,0)" xlink:href="#aR"/><use transform="matrix(0.05,0,0,0.05,22.950000000000003,0)" xlink:href="#aU"/><use transform="matrix(0.05,0,0,0.05,32.95,0)" xlink:href="#bd"/><use transform="matrix(0.05,0,0,0.05,41.95,0)" xlink:href="#aL"/><use transform="matrix(0.05,0,0,0.05,51.95,0)" xlink:href="#ba"/><use transform="matrix(0.05,0,0,0.05,55.900000000000006,0)" xlink:href="#aR"/><use transform="matrix(0.05,0,0,0.05,65.9,0)" xlink:href="#aQ"/></g><use transform="matrix(0.05,0,0,0.05,0,0)" xlink:href="#aR" id="P"/><path d="M141-36C126-15 110 5 73 4 37 3 15-17 15-53c-1-64 63-63 125-63 3-35-9-54-41-54-24 1-41 7-42 31l-33-3c5-37 33-52 76-52 45 0 72 20 72 64v82c-1 20 7 32 28 27v20c-31 9-61-2-59-35zM48-53c0 20 12 33 32 33 41-3 63-29 60-74-43 2-92-5-92 41zm117-205c-3 23-9 48-36 47-26-1-65-44-74 0H39c4-23 8-48 36-47s64 44 74 0h16" id="bD"/><g id="Q"><use transform="matrix(0.05,0,0,0.05,0,0)" xlink:href="#aR"/><use transform="matrix(0.05,0,0,0.05,10,0)" xlink:href="#bk"/><use transform="matrix(0.05,0,0,0.05,19,0)" xlink:href="#bD"/><use transform="matrix(0.05,0,0,0.05,29,0)" xlink:href="#aS"/></g><g id="R"><use transform="matrix(0.05,0,0,0.05,0,0)" xlink:href="#aV"/><use transform="matrix(0.05,0,0,0.05,12,0)" xlink:href="#aP"/><use transform="matrix(0.05,0,0,0.05,17,0)" xlink:href="#aN"/><use transform="matrix(0.05,0,0,0.05,20.95,0)" xlink:href="#bg"/><use transform="matrix(0.05,0,0,0.05,29.950000000000003,0)" xlink:href="#aR"/><use transform="matrix(0.05,0,0,0.05,39.95,0)" xlink:href="#aQ"/></g><g id="S"><use transform="matrix(0.05,0,0,0.05,0,0)" xlink:href="#aU"/><use transform="matrix(0.05,0,0,0.05,10,0)" xlink:href="#aS"/><use transform="matrix(0.05,0,0,0.05,20,0)" xlink:href="#aP"/><use transform="matrix(0.05,0,0,0.05,25,0)" xlink:href="#aN"/><use transform="matrix(0.05,0,0,0.05,28.950000000000003,0)" xlink:href="#aZ"/><use transform="matrix(0.05,0,0,0.05,33.95,0)" xlink:href="#aN"/><use transform="matrix(0.05,0,0,0.05,37.900000000000006,0)" xlink:href="#bd"/><use transform="matrix(0.05,0,0,0.05,46.900000000000006,0)" xlink:href="#aR"/><use transform="matrix(0.05,0,0,0.05,56.900000000000006,0)" xlink:href="#bk"/><use transform="matrix(0.05,0,0,0.05,65.9,0)" xlink:href="#bl"/><use transform="matrix(0.05,0,0,0.05,75.9,0)" xlink:href="#aL"/><use transform="matrix(0.05,0,0,0.05,85.9,0)" xlink:href="#aO"/></g><g id="T"><use transform="matrix(0.05,0,0,0.05,0,0)" xlink:href="#bn"/><use transform="matrix(0.05,0,0,0.05,12.950000000000001,0)" xlink:href="#aS"/><use transform="matrix(0.05,0,0,0.05,22.950000000000003,0)" xlink:href="#aW"/><use transform="matrix(0.05,0,0,0.05,37.900000000000006,0)" xlink:href="#aL"/><use transform="matrix(0.05,0,0,0.05,47.900000000000006,0)" xlink:href="#bk"/><use transform="matrix(0.05,0,0,0.05,56.900000000000006,0)" xlink:href="#aR"/><use transform="matrix(0.05,0,0,0.05,66.9,0)" xlink:href="#aQ"/></g><use transform="matrix(0.05,0,0,0.05,0,0)" xlink:href="#aS" id="U"/><g id="V"><use transform="matrix(0.05,0,0,0.05,0,0)" xlink:href="#aP"/><use transform="matrix(0.05,0,0,0.05,5,0)" xlink:href="#aQ"/><use transform="matrix(0.05,0,0,0.05,10.95,0)" xlink:href="#aR"/><use transform="matrix(0.05,0,0,0.05,20.95,0)" xlink:href="#bc"/><use transform="matrix(0.05,0,0,0.05,30.950000000000003,0)" xlink:href="#aR"/><use transform="matrix(0.05,0,0,0.05,40.95,0)" xlink:href="#ba"/><use transform="matrix(0.05,0,0,0.05,44.900000000000006,0)" xlink:href="#bo"/><use transform="matrix(0.05,0,0,0.05,54.900000000000006,0)" xlink:href="#aS"/></g><g id="W"><use transform="matrix(0.05,0,0,0.05,0,0)" xlink:href="#bj"/><use transform="matrix(0.05,0,0,0.05,5,0)" xlink:href="#aU"/><use transform="matrix(0.05,0,0,0.05,15,0)" xlink:href="#aN"/><use transform="matrix(0.05,0,0,0.05,18.95,0)" xlink:href="#bd"/><use transform="matrix(0.05,0,0,0.05,27.950000000000003,0)" xlink:href="#aN"/><use transform="matrix(0.05,0,0,0.05,31.899999999999995,0)" xlink:href="#aR"/><use transform="matrix(0.05,0,0,0.05,41.9,0)" xlink:href="#aQ"/></g><g id="X"><use transform="matrix(0.05,0,0,0.05,0,0)" xlink:href="#aN"/><use transform="matrix(0.05,0,0,0.05,3.95,0)" xlink:href="#aU"/><use transform="matrix(0.05,0,0,0.05,13.949999999999998,0)" xlink:href="#aP"/><use transform="matrix(0.05,0,0,0.05,18.95,0)" xlink:href="#aL"/><use transform="matrix(0.05,0,0,0.05,28.950000000000003,0)" xlink:href="#aQ"/><use transform="matrix(0.05,0,0,0.05,34.9,0)" xlink:href="#bg"/><use transform="matrix(0.05,0,0,0.05,43.9,0)" xlink:href="#aR"/><use transform="matrix(0.05,0,0,0.05,53.900000000000006,0)" xlink:href="#ba"/><use transform="matrix(0.05,0,0,0.05,57.85,0)" xlink:href="#aS"/></g><g id="Y"><use transform="matrix(0.05,0,0,0.05,0,0)" xlink:href="#aK"/><use transform="matrix(0.05,0,0,0.05,12.950000000000001,0)" xlink:href="#aL"/><use transform="matrix(0.05,0,0,0.05,22.950000000000003,0)" xlink:href="#aP"/><use transform="matrix(0.05,0,0,0.05,27.950000000000003,0)" xlink:href="#aS"/><use transform="matrix(0.05,0,0,0.05,37.95,0)" xlink:href="#aQ"/><use transform="matrix(0.05,0,0,0.05,43.900000000000006,0)" xlink:href="#aU"/><use transform="matrix(0.05,0,0,0.05,53.900000000000006,0)" xlink:href="#aR"/><use transform="matrix(0.05,0,0,0.05,63.900000000000006,0)" xlink:href="#aQ"/></g><g id="Z"><use transform="matrix(0.05,0,0,0.05,0,0)" xlink:href="#aY"/><use transform="matrix(0.05,0,0,0.05,10,0)" xlink:href="#aS"/></g><g id="aa"><use transform="matrix(0.05,0,0,0.05,0,0)" xlink:href="#bC"/><use transform="matrix(0.05,0,0,0.05,12,0)" xlink:href="#aU"/><use transform="matrix(0.05,0,0,0.05,22,0)" xlink:href="#bd"/><use transform="matrix(0.05,0,0,0.05,31,0)" xlink:href="#aL"/><use transform="matrix(0.05,0,0,0.05,41,0)" xlink:href="#aQ"/><use transform="matrix(0.05,0,0,0.05,46.95,0)" xlink:href="#aQ"/><use transform="matrix(0.05,0,0,0.05,52.900000000000006,0)" xlink:href="#aR"/><use transform="matrix(0.05,0,0,0.05,62.900000000000006,0)" xlink:href="#aQ"/></g><g id="ab"><use transform="matrix(0.05,0,0,0.05,0,0)" xlink:href="#aZ"/><use transform="matrix(0.05,0,0,0.05,5,0)" xlink:href="#aR"/><use transform="matrix(0.05,0,0,0.05,15,0)" xlink:href="#ba"/><use transform="matrix(0.05,0,0,0.05,18.95,0)" xlink:href="#aP"/><use transform="matrix(0.05,0,0,0.05,23.95,0)" xlink:href="#aR"/></g><g id="ac"><use transform="matrix(0.05,0,0,0.05,0,0)" xlink:href="#aO"/><use transform="matrix(0.05,0,0,0.05,9,0)" xlink:href="#aL"/><use transform="matrix(0.05,0,0,0.05,19,0)" xlink:href="#aW"/></g><g id="ad"><use transform="matrix(0.05,0,0,0.05,0,0)" xlink:href="#aR"/><use transform="matrix(0.05,0,0,0.05,10,0)" xlink:href="#bc"/><use transform="matrix(0.05,0,0,0.05,20,0)" xlink:href="#aS"/><use transform="matrix(0.05,0,0,0.05,30,0)" xlink:href="#aU"/><use transform="matrix(0.05,0,0,0.05,40,0)" xlink:href="#aS"/></g><g id="ae"><use transform="matrix(0.05,0,0,0.05,0,0)" xlink:href="#bd"/><use transform="matrix(0.05,0,0,0.05,9,0)" xlink:href="#aS"/><use transform="matrix(0.05,0,0,0.05,19,0)" xlink:href="#aW"/></g><g id="af"><use transform="matrix(0.05,0,0,0.05,0,0)" xlink:href="#aK"/><use transform="matrix(0.05,0,0,0.05,12.950000000000001,0)" xlink:href="#aL"/><use transform="matrix(0.05,0,0,0.05,22.950000000000003,0)" xlink:href="#aM"/><use transform="matrix(0.05,0,0,0.05,32.95,0)" xlink:href="#aN"/><use transform="matrix(0.05,0,0,0.05,36.900000000000006,0)" xlink:href="#aO"/><use transform="matrix(0.05,0,0,0.05,45.900000000000006,0)" xlink:href="#aP"/><use transform="matrix(0.05,0,0,0.05,50.900000000000006,0)" xlink:href="#aQ"/><use transform="matrix(0.05,0,0,0.05,56.85,0)" xlink:href="#aR"/><use transform="matrix(0.05,0,0,0.05,66.85000000000001,0)" xlink:href="#aQ"/></g><g id="ag"><use transform="matrix(0.05,0,0,0.05,0,0)" xlink:href="#aZ"/><use transform="matrix(0.05,0,0,0.05,5,0)" xlink:href="#aR"/><use transform="matrix(0.05,0,0,0.05,15,0)" xlink:href="#ba"/><use transform="matrix(0.05,0,0,0.05,18.95,0)" xlink:href="#aP"/><use transform="matrix(0.05,0,0,0.05,23.95,0)" xlink:href="#aR"/></g><g id="ah"><use transform="matrix(0.05,0,0,0.05,0,0)" xlink:href="#aY"/><use transform="matrix(0.05,0,0,0.05,10,0)" xlink:href="#bf"/><use transform="matrix(0.05,0,0,0.05,20,0)" xlink:href="#aQ"/><use transform="matrix(0.05,0,0,0.05,25.950000000000003,0)" xlink:href="#aR"/><use transform="matrix(0.05,0,0,0.05,35.95,0)" xlink:href="#bk"/><use transform="matrix(0.05,0,0,0.05,44.95,0)" xlink:href="#bD"/><use transform="matrix(0.05,0,0,0.05,54.95,0)" xlink:href="#aS"/></g><g id="ai"><use transform="matrix(0.05,0,0,0.05,0,0)" xlink:href="#aN"/><use transform="matrix(0.05,0,0,0.05,3.95,0)" xlink:href="#aU"/><use transform="matrix(0.05,0,0,0.05,13.949999999999998,0)" xlink:href="#aZ"/><use transform="matrix(0.05,0,0,0.05,18.95,0)" xlink:href="#aL"/><use transform="matrix(0.05,0,0,0.05,28.950000000000003,0)" xlink:href="#aQ"/><use transform="matrix(0.05,0,0,0.05,34.9,0)" xlink:href="#aN"/><use transform="matrix(0.05,0,0,0.05,38.85,0)" xlink:href="#aS"/><use transform="matrix(0.05,0,0,0.05,48.85,0)" xlink:href="#aQ"/></g><g id="aj"><use transform="matrix(0.05,0,0,0.05,0,0)" xlink:href="#bf"/><use transform="matrix(0.05,0,0,0.05,10,0)" xlink:href="#aW"/></g><g id="ak"><use transform="matrix(0.05,0,0,0.05,0,0)" xlink:href="#aV"/><use transform="matrix(0.05,0,0,0.05,12,0)" xlink:href="#aY"/><use transform="matrix(0.05,0,0,0.05,22,0)" xlink:href="#aN"/><use transform="matrix(0.05,0,0,0.05,25.950000000000003,0)" xlink:href="#bd"/><use transform="matrix(0.05,0,0,0.05,34.95,0)" xlink:href="#aN"/><use transform="matrix(0.05,0,0,0.05,38.900000000000006,0)" xlink:href="#aS"/><use transform="matrix(0.05,0,0,0.05,48.900000000000006,0)" xlink:href="#aU"/><use transform="matrix(0.05,0,0,0.05,58.900000000000006,0)" xlink:href="#aR"/><use transform="matrix(0.05,0,0,0.05,68.9,0)" xlink:href="#aQ"/></g><g id="al"><use transform="matrix(0.05,0,0,0.05,0,0)" xlink:href="#aZ"/><use transform="matrix(0.05,0,0,0.05,5,0)" xlink:href="#aS"/><use transform="matrix(0.05,0,0,0.05,15,0)" xlink:href="#aP"/><use transform="matrix(0.05,0,0,0.05,20,0)" xlink:href="#aS"/></g><g id="am"><use transform="matrix(0.05,0,0,0.05,0,0)" xlink:href="#aV"/><use transform="matrix(0.05,0,0,0.05,12,0)" xlink:href="#aY"/><use transform="matrix(0.05,0,0,0.05,22,0)" xlink:href="#aN"/><use transform="matrix(0.05,0,0,0.05,25.950000000000003,0)" xlink:href="#bd"/><use transform="matrix(0.05,0,0,0.05,34.95,0)" xlink:href="#aN"/><use transform="matrix(0.05,0,0,0.05,38.900000000000006,0)" xlink:href="#aS"/><use transform="matrix(0.05,0,0,0.05,48.900000000000006,0)" xlink:href="#aU"/><use transform="matrix(0.05,0,0,0.05,58.900000000000006,0)" xlink:href="#aR"/><use transform="matrix(0.05,0,0,0.05,68.9,0)" xlink:href="#aQ"/></g><g id="an"><use transform="matrix(0.05,0,0,0.05,0,0)" xlink:href="#aY"/><use transform="matrix(0.05,0,0,0.05,10,0)" xlink:href="#aL"/><use transform="matrix(0.05,0,0,0.05,20,0)" xlink:href="#aO"/><use transform="matrix(0.05,0,0,0.05,29,0)" xlink:href="#bd"/><use transform="matrix(0.05,0,0,0.05,38,0)" xlink:href="#aQ"/><use transform="matrix(0.05,0,0,0.05,43.95,0)" xlink:href="#aN"/><use transform="matrix(0.05,0,0,0.05,47.900000000000006,0)" xlink:href="#bk"/><use transform="matrix(0.05,0,0,0.05,56.900000000000006,0)" xlink:href="#bD"/><use transform="matrix(0.05,0,0,0.05,66.9,0)" xlink:href="#aS"/></g><path d="M141-36C126-15 110 5 73 4 37 3 15-17 15-53c-1-64 63-63 125-63 3-35-9-54-41-54-24 1-41 7-42 31l-33-3c5-37 33-52 76-52 45 0 72 20 72 64v82c-1 20 7 32 28 27v20c-31 9-61-2-59-35zM48-53c0 20 12 33 32 33 41-3 63-29 60-74-43 2-92-5-92 41zm25-158c8-23 27-35 38-54h36v5l-58 49H73" id="bE"/><g id="ao"><use transform="matrix(0.05,0,0,0.05,0,0)" xlink:href="#aR"/><use transform="matrix(0.05,0,0,0.05,10,0)" xlink:href="#bf"/><use transform="matrix(0.05,0,0,0.05,20,0)" xlink:href="#aP"/><use transform="matrix(0.05,0,0,0.05,25,0)" xlink:href="#aS"/><use transform="matrix(0.05,0,0,0.05,35,0)" xlink:href="#aW"/><use transform="matrix(0.05,0,0,0.05,49.95,0)" xlink:href="#bE"/><use transform="matrix(0.05,0,0,0.05,59.95,0)" xlink:href="#aP"/><use transform="matrix(0.05,0,0,0.05,64.95,0)" xlink:href="#aN"/><use transform="matrix(0.05,0,0,0.05,68.9,0)" xlink:href="#bd"/><use transform="matrix(0.05,0,0,0.05,77.9,0)" xlink:href="#aS"/></g><path d="M160-131c35 5 61 23 61 61C221 17 115-2 30 0v-248c76 3 177-17 177 60 0 33-19 50-47 57zm-97-11c50-1 110 9 110-42 0-47-63-36-110-37v79zm0 115c55-2 124 14 124-45 0-56-70-42-124-44v89" id="bF"/><g id="ap"><use transform="matrix(0.05,0,0,0.05,0,0)" xlink:href="#bF"/><use transform="matrix(0.05,0,0,0.05,12,0)" xlink:href="#aR"/><use transform="matrix(0.05,0,0,0.05,22,0)" xlink:href="#aN"/><use transform="matrix(0.05,0,0,0.05,25.950000000000003,0)" xlink:href="#bi"/><use transform="matrix(0.05,0,0,0.05,34.95,0)" xlink:href="#aR"/><use transform="matrix(0.05,0,0,0.05,44.95,0)" xlink:href="#aQ"/></g><path d="M137 0h-34L2-248h35l83 218 83-218h36" id="bG"/><g id="aq"><use transform="matrix(0.05,0,0,0.05,0,0)" xlink:href="#bG"/><use transform="matrix(0.05,0,0,0.05,11.65,0)" xlink:href="#aN"/><use transform="matrix(0.05,0,0,0.05,15.600000000000001,0)" xlink:href="#aO"/><use transform="matrix(0.05,0,0,0.05,24.6,0)" xlink:href="#bf"/><use transform="matrix(0.05,0,0,0.05,34.6,0)" xlink:href="#aR"/><use transform="matrix(0.05,0,0,0.05,44.6,0)" xlink:href="#ba"/><use transform="matrix(0.05,0,0,0.05,48.550000000000004,0)" xlink:href="#aN"/><use transform="matrix(0.05,0,0,0.05,52.5,0)" xlink:href="#aX"/><use transform="matrix(0.05,0,0,0.05,61.5,0)" xlink:href="#aR"/><use transform="matrix(0.05,0,0,0.05,71.5,0)" xlink:href="#aQ"/></g><g id="ar"><use transform="matrix(0.05,0,0,0.05,0,0)" xlink:href="#aN"/><use transform="matrix(0.05,0,0,0.05,3.95,0)" xlink:href="#aU"/><use transform="matrix(0.05,0,0,0.05,13.949999999999998,0)" xlink:href="#bd"/><use transform="matrix(0.05,0,0,0.05,22.95,0)" xlink:href="#aS"/><use transform="matrix(0.05,0,0,0.05,32.95,0)" xlink:href="#aO"/><use transform="matrix(0.05,0,0,0.05,41.95,0)" xlink:href="#aN"/><use transform="matrix(0.05,0,0,0.05,45.900000000000006,0)" xlink:href="#aO"/><use transform="matrix(0.05,0,0,0.05,54.900000000000006,0)" xlink:href="#aP"/><use transform="matrix(0.05,0,0,0.05,59.900000000000006,0)" xlink:href="#bp"/><use transform="matrix(0.05,0,0,0.05,69.9,0)" xlink:href="#aU"/><use transform="matrix(0.05,0,0,0.05,79.9,0)" xlink:href="#bd"/><use transform="matrix(0.05,0,0,0.05,88.9,0)" xlink:href="#aN"/><use transform="matrix(0.05,0,0,0.05,92.85000000000001,0)" xlink:href="#aR"/><use transform="matrix(0.05,0,0,0.05,102.85000000000001,0)" xlink:href="#aO"/></g></defs></g></svg>